G04 Layer_Color=20142*
%FSLAX24Y24*%
%MOIN*%
G70*
G01*
G75*
%ADD59R,0.0830X0.1420*%
%ADD60R,0.0828X0.0828*%
%ADD61R,0.0631X0.0710*%
%ADD62R,0.0571X0.0197*%
%ADD63R,0.0493X0.0474*%
%ADD64R,0.0356X0.0415*%
%ADD65R,0.0520X0.0480*%
%ADD66R,0.0415X0.0434*%
%ADD67R,0.0434X0.0415*%
%ADD68R,0.0395X0.0395*%
%ADD69R,0.0552X0.1458*%
%ADD70R,0.4277X0.3379*%
%ADD71R,0.0480X0.1281*%
%ADD72R,0.0480X0.0520*%
%ADD73R,0.0395X0.0480*%
%ADD74R,0.0480X0.0395*%
%ADD75O,0.0297X0.0651*%
%ADD76O,0.0651X0.0297*%
%ADD77R,0.2245X0.0867*%
%ADD78R,0.0867X0.0631*%
%ADD79O,0.0867X0.0218*%
%ADD80C,0.0680*%
%ADD81C,0.1458*%
%ADD82O,0.0710X0.0434*%
%ADD83R,0.1852X0.0867*%
%ADD84R,0.0867X0.1852*%
%ADD85O,0.0880X0.0680*%
%ADD86R,0.0730X0.0730*%
%ADD87C,0.0730*%
%ADD88P,0.0888X8X112.5*%
%ADD89C,0.0830*%
%ADD90R,0.0830X0.0830*%
%ADD91C,0.0320*%
D59*
X13132Y41600D02*
D03*
X14670D02*
D03*
D60*
X10648Y39228D02*
D03*
Y40172D02*
D03*
D61*
X11613Y38440D02*
D03*
Y40960D02*
D03*
D62*
X11702Y40212D02*
D03*
Y39188D02*
D03*
Y39444D02*
D03*
Y39956D02*
D03*
Y39700D02*
D03*
D63*
X25045Y30900D02*
D03*
X24455D02*
D03*
D64*
X11276Y36850D02*
D03*
X10824D02*
D03*
X22974Y41700D02*
D03*
X23526D02*
D03*
X10824Y35750D02*
D03*
X11276D02*
D03*
X10824Y36300D02*
D03*
X11276D02*
D03*
Y37400D02*
D03*
X10824D02*
D03*
D65*
X26987Y26050D02*
D03*
X26313D02*
D03*
X34010Y31800D02*
D03*
X34685D02*
D03*
X33960Y32500D02*
D03*
X34635D02*
D03*
X33960Y33200D02*
D03*
X34635D02*
D03*
X33960Y33900D02*
D03*
X34635D02*
D03*
X33960Y34600D02*
D03*
X34635D02*
D03*
X33960Y35300D02*
D03*
X34635D02*
D03*
X33960Y36000D02*
D03*
X34635D02*
D03*
X33960Y36700D02*
D03*
X34635D02*
D03*
X33960Y37400D02*
D03*
X34635D02*
D03*
X33960Y38100D02*
D03*
X34635D02*
D03*
X31610Y40000D02*
D03*
X32285D02*
D03*
X31610Y40750D02*
D03*
X32285D02*
D03*
X31610Y41500D02*
D03*
X32285D02*
D03*
X31610Y42250D02*
D03*
X32285D02*
D03*
X31610Y43000D02*
D03*
X32285D02*
D03*
X31610Y43750D02*
D03*
X32285D02*
D03*
X31610Y44500D02*
D03*
X32285D02*
D03*
X31610Y45250D02*
D03*
X32285D02*
D03*
X31610Y46750D02*
D03*
X32285D02*
D03*
X31610Y46000D02*
D03*
X32285D02*
D03*
D66*
X26394Y26750D02*
D03*
X26906D02*
D03*
X26106Y38900D02*
D03*
X25594D02*
D03*
D67*
X24250Y41694D02*
D03*
Y42206D02*
D03*
X22250Y41694D02*
D03*
Y42206D02*
D03*
D68*
X12465Y37400D02*
D03*
X11835D02*
D03*
X12465Y36850D02*
D03*
X11835D02*
D03*
X11835Y35750D02*
D03*
X12465D02*
D03*
X11835Y36300D02*
D03*
X12465D02*
D03*
D69*
X22050Y47799D02*
D03*
Y45201D02*
D03*
D70*
X17900Y46651D02*
D03*
D71*
X18900Y42200D02*
D03*
X16900D02*
D03*
D72*
X31500Y30340D02*
D03*
Y29665D02*
D03*
X27350Y30390D02*
D03*
Y29715D02*
D03*
X32400Y30390D02*
D03*
Y29715D02*
D03*
X28000Y30390D02*
D03*
Y29715D02*
D03*
X33100Y30390D02*
D03*
Y29715D02*
D03*
X28700Y30390D02*
D03*
Y29715D02*
D03*
X33800Y30390D02*
D03*
Y29715D02*
D03*
X29500Y30390D02*
D03*
Y29715D02*
D03*
X34500Y30390D02*
D03*
Y29715D02*
D03*
X30500Y30440D02*
D03*
Y29765D02*
D03*
D73*
X33750Y44650D02*
D03*
X34150Y43750D02*
D03*
X33350D02*
D03*
X35150Y40900D02*
D03*
X35550Y40000D02*
D03*
X34750D02*
D03*
X36000Y36000D02*
D03*
X36400Y35100D02*
D03*
X35600D02*
D03*
X37500Y32500D02*
D03*
X37900Y31600D02*
D03*
X37100D02*
D03*
X35150Y45400D02*
D03*
X35550Y44500D02*
D03*
X34750D02*
D03*
X33750Y41650D02*
D03*
X34150Y40750D02*
D03*
X33350D02*
D03*
X37500Y37000D02*
D03*
X37900Y36100D02*
D03*
X37100D02*
D03*
X36000Y33000D02*
D03*
X36400Y32100D02*
D03*
X35600D02*
D03*
X33750Y46150D02*
D03*
X34150Y45250D02*
D03*
X33350D02*
D03*
X35150Y42400D02*
D03*
X35550Y41500D02*
D03*
X34750D02*
D03*
X36000Y37500D02*
D03*
X36400Y36600D02*
D03*
X35600D02*
D03*
X37500Y34000D02*
D03*
X37900Y33100D02*
D03*
X37100D02*
D03*
X35150Y46900D02*
D03*
X35550Y46000D02*
D03*
X34750D02*
D03*
X33750Y43150D02*
D03*
X34150Y42250D02*
D03*
X33350D02*
D03*
X37500Y38500D02*
D03*
X37900Y37600D02*
D03*
X37100D02*
D03*
X36000Y34500D02*
D03*
X36400Y33600D02*
D03*
X35600D02*
D03*
X33750Y47650D02*
D03*
X34150Y46750D02*
D03*
X33350D02*
D03*
X35150Y43900D02*
D03*
X35550Y43000D02*
D03*
X34750D02*
D03*
X36000Y39000D02*
D03*
X36400Y38100D02*
D03*
X35600D02*
D03*
X37500Y35500D02*
D03*
X37900Y34600D02*
D03*
X37100D02*
D03*
D74*
X32400Y28500D02*
D03*
X31500Y28100D02*
D03*
Y28900D02*
D03*
X28900Y27000D02*
D03*
X28000Y26600D02*
D03*
Y27400D02*
D03*
X33400Y27000D02*
D03*
X32500Y26600D02*
D03*
Y27400D02*
D03*
X29400Y28500D02*
D03*
X28500Y28100D02*
D03*
Y28900D02*
D03*
X33900Y28500D02*
D03*
X33000Y28100D02*
D03*
Y28900D02*
D03*
X30400Y27000D02*
D03*
X29500Y26600D02*
D03*
Y27400D02*
D03*
X34900Y27000D02*
D03*
X34000Y26600D02*
D03*
Y27400D02*
D03*
X30900Y28500D02*
D03*
X30000Y28100D02*
D03*
Y28900D02*
D03*
X35400Y28500D02*
D03*
X34500Y28100D02*
D03*
Y28900D02*
D03*
X31900Y27000D02*
D03*
X31000Y26600D02*
D03*
Y27400D02*
D03*
D75*
X25338Y37842D02*
D03*
X25653D02*
D03*
X25968D02*
D03*
X26283D02*
D03*
X26598D02*
D03*
X26913D02*
D03*
X27228D02*
D03*
X27543D02*
D03*
X27857D02*
D03*
X28172D02*
D03*
X28487D02*
D03*
X28802D02*
D03*
X29117D02*
D03*
X29432D02*
D03*
X29747D02*
D03*
X30062D02*
D03*
Y31858D02*
D03*
X29747D02*
D03*
X29432D02*
D03*
X29117D02*
D03*
X28802D02*
D03*
X28487D02*
D03*
X28172D02*
D03*
X27857D02*
D03*
X27543D02*
D03*
X27228D02*
D03*
X26913D02*
D03*
X26598D02*
D03*
X26283D02*
D03*
X25968D02*
D03*
X25653D02*
D03*
X25338D02*
D03*
D76*
X30692Y37212D02*
D03*
Y36897D02*
D03*
Y36582D02*
D03*
Y36267D02*
D03*
Y35952D02*
D03*
Y35637D02*
D03*
Y35322D02*
D03*
Y35007D02*
D03*
Y34693D02*
D03*
Y34378D02*
D03*
Y34063D02*
D03*
Y33748D02*
D03*
Y33433D02*
D03*
Y33118D02*
D03*
Y32803D02*
D03*
Y32488D02*
D03*
X24708D02*
D03*
Y32803D02*
D03*
Y33118D02*
D03*
Y33433D02*
D03*
Y33748D02*
D03*
Y34063D02*
D03*
Y34378D02*
D03*
Y34693D02*
D03*
Y35007D02*
D03*
Y35322D02*
D03*
Y35637D02*
D03*
Y35952D02*
D03*
Y36267D02*
D03*
Y36582D02*
D03*
Y36897D02*
D03*
Y37212D02*
D03*
D77*
X20480Y40250D02*
D03*
X24220D02*
D03*
D78*
X22378Y29436D02*
D03*
X25922D02*
D03*
X22378Y27664D02*
D03*
X25922D02*
D03*
D79*
X16787Y35987D02*
D03*
Y36243D02*
D03*
Y36498D02*
D03*
Y36754D02*
D03*
Y37010D02*
D03*
Y37266D02*
D03*
Y37522D02*
D03*
Y37778D02*
D03*
Y38034D02*
D03*
Y38290D02*
D03*
Y38546D02*
D03*
Y38802D02*
D03*
Y39057D02*
D03*
Y39313D02*
D03*
X13913D02*
D03*
Y39057D02*
D03*
Y38802D02*
D03*
Y38546D02*
D03*
Y38290D02*
D03*
Y38034D02*
D03*
Y37778D02*
D03*
Y37522D02*
D03*
Y37266D02*
D03*
Y37010D02*
D03*
Y36754D02*
D03*
Y36498D02*
D03*
Y36243D02*
D03*
Y35987D02*
D03*
D80*
X13800Y43700D02*
D03*
X13700D02*
D03*
X13600D02*
D03*
X13500D02*
D03*
X13400D02*
D03*
X13300D02*
D03*
X13200Y43706D02*
D03*
X13100Y43700D02*
D03*
X13000D02*
D03*
X12900D02*
D03*
X12800D02*
D03*
X12700D02*
D03*
X11300Y44300D02*
D03*
Y44400D02*
D03*
Y44500D02*
D03*
Y44600D02*
D03*
Y44700D02*
D03*
Y44800D02*
D03*
Y44950D02*
D03*
Y45050D02*
D03*
Y45150D02*
D03*
Y45250D02*
D03*
Y45350D02*
D03*
X13750Y46100D02*
D03*
X13650D02*
D03*
X13550D02*
D03*
X13450D02*
D03*
X13350D02*
D03*
X13250D02*
D03*
X13100D02*
D03*
X13000D02*
D03*
X12900D02*
D03*
X12800D02*
D03*
X12700D02*
D03*
X24000Y31800D02*
D03*
D81*
X41496Y47728D02*
D03*
X27717D02*
D03*
X23780Y26075D02*
D03*
X13150D02*
D03*
D82*
X10648Y38401D02*
D03*
Y40999D02*
D03*
D83*
X13200Y46069D02*
D03*
Y43706D02*
D03*
D84*
X11271Y44868D02*
D03*
D85*
X39470Y48500D02*
D03*
Y47500D02*
D03*
Y46500D02*
D03*
Y44500D02*
D03*
Y45500D02*
D03*
Y43500D02*
D03*
Y42500D02*
D03*
Y41500D02*
D03*
Y39500D02*
D03*
Y40500D02*
D03*
D86*
X42270Y28550D02*
D03*
D87*
Y29550D02*
D03*
Y30550D02*
D03*
Y31550D02*
D03*
Y32550D02*
D03*
Y33550D02*
D03*
X41270Y28550D02*
D03*
Y29550D02*
D03*
Y30550D02*
D03*
Y31550D02*
D03*
Y32550D02*
D03*
Y33550D02*
D03*
X42270Y34550D02*
D03*
X41270D02*
D03*
Y35550D02*
D03*
X42270D02*
D03*
Y37550D02*
D03*
X41270D02*
D03*
Y36550D02*
D03*
X42270D02*
D03*
D88*
X20700Y32700D02*
D03*
X19700D02*
D03*
X20700Y33700D02*
D03*
X19700D02*
D03*
X20700Y34700D02*
D03*
X19700D02*
D03*
D89*
X11250Y33100D02*
D03*
Y32100D02*
D03*
Y31100D02*
D03*
D90*
Y34100D02*
D03*
D91*
X29550Y36750D02*
D03*
X13000Y36300D02*
D03*
X17150Y34850D02*
D03*
X17500Y36000D02*
D03*
X11800Y35200D02*
D03*
X18228Y37522D02*
D03*
X28400Y36950D02*
D03*
X24150Y38100D02*
D03*
X23750Y38800D02*
D03*
X18250Y37010D02*
D03*
X22900Y34050D02*
D03*
X20900Y31250D02*
D03*
X22900Y31050D02*
D03*
X22400Y33200D02*
D03*
X22800Y37930D02*
D03*
X26913Y27663D02*
D03*
X26000Y36500D02*
D03*
X31000Y26000D02*
D03*
X29500D02*
D03*
X28000D02*
D03*
X32500D02*
D03*
X34000D02*
D03*
X28900Y27000D02*
D03*
X29400Y28500D02*
D03*
X30400Y27000D02*
D03*
X30900Y28500D02*
D03*
X31900Y27000D02*
D03*
X32400Y28500D02*
D03*
X33400Y27000D02*
D03*
X34900D02*
D03*
X35400Y28500D02*
D03*
X33900D02*
D03*
X38750Y37600D02*
D03*
Y36100D02*
D03*
Y34600D02*
D03*
Y33100D02*
D03*
Y31600D02*
D03*
X37500Y32500D02*
D03*
Y34000D02*
D03*
X36000Y33000D02*
D03*
Y34500D02*
D03*
X37500Y35500D02*
D03*
X36000Y36000D02*
D03*
X37500Y37000D02*
D03*
X36000Y37500D02*
D03*
X37500Y38500D02*
D03*
X36000Y39000D02*
D03*
X35550Y40000D02*
D03*
X34150Y46750D02*
D03*
X35550Y46000D02*
D03*
X34150Y45250D02*
D03*
Y43750D02*
D03*
X35550Y44500D02*
D03*
Y43000D02*
D03*
X34150Y42250D02*
D03*
X35550Y41500D02*
D03*
X34150Y40750D02*
D03*
M02*
