M48
;Layer_Color=6321
;FILE_FORMAT=2:4
INCH,LZ
;TYPE=PLATED
T1F00S00C0.0130
T3F00S00C0.0300
T4F00S00C0.0394
T6F00S00C0.0400
T7F00S00C0.0420
T8F00S00C0.1220
%
T01
X0325Y026
X034
X0334Y027
X0319
X0324Y0285
X0339
X0354
X0349Y027
X0304
X0289
X0295Y026
X031
X0309Y0285
X0294
X026913Y027663
X028Y026
X0229Y03105
X013Y0363
X0118Y0352
X01715Y03485
X0175Y036
X01825Y03701
X018228Y037522
X0228Y03793
X02415Y0381
X02375Y0388
X026Y0365
X0284Y03695
X02955Y03675
X0229Y03405
X0224Y0332
X0209Y03125
X036Y033
Y0345
Y036
Y0375
Y039
X03555Y04
Y0415
Y043
Y0445
Y046
X03415Y04675
Y04525
Y04375
Y04225
Y04075
X0375Y0385
Y037
Y0355
Y034
Y0325
X03875Y0331
Y0346
Y0361
Y0376
Y0316
T03
X024Y0318
T04
X0113Y0443
Y0444
Y0445
Y0446
Y0447
Y0448
Y04495
Y04505
Y04515
Y04525
Y04535
X0127Y0461
X0128
X0129
X013
X0131
X01325
X01335
X01345
X01355
X01365
X01375
X0138Y0437
X0137
X0136
X0135
X0134
X0133
X0132Y043706
X0131Y0437
X013
X0129
X0128
X0127
T06
X01125Y0311
Y0321
Y0331
Y0341
X0197Y0337
Y0327
X0207
Y0337
Y0347
X0197
T07
X04127Y02855
X04227
Y02955
Y03055
X04127
Y02955
Y03155
X04227
Y03255
Y03355
X04127
Y03255
Y03455
X04227
Y03555
X04127
Y03655
Y03755
X04227
Y03655
X03947Y0395
Y0405
Y0415
Y0425
Y0435
Y0445
Y0455
Y0465
Y0475
Y0485
T08
X02378Y026075
X01315
X041496Y047728
X027717
M30
