G04 Layer_Color=8150272*
%FSLAX24Y24*%
%MOIN*%
G70*
G01*
G75*
%ADD64R,0.0356X0.0415*%
%ADD80C,0.0680*%
%ADD81C,0.1458*%
%ADD82O,0.0710X0.0434*%
%ADD83R,0.1852X0.0867*%
%ADD84R,0.0867X0.1852*%
%ADD85O,0.0880X0.0680*%
%ADD86R,0.0730X0.0730*%
%ADD87C,0.0730*%
%ADD88P,0.0888X8X112.5*%
%ADD89C,0.0830*%
%ADD90R,0.0830X0.0830*%
%ADD91C,0.0320*%
%ADD92R,0.0415X0.0356*%
D64*
X35226Y32500D02*
D03*
X34774D02*
D03*
X35226Y33000D02*
D03*
X34774D02*
D03*
X35226Y34000D02*
D03*
X34774D02*
D03*
X35226Y34500D02*
D03*
X34774D02*
D03*
X35226Y35500D02*
D03*
X34774D02*
D03*
X35226Y36000D02*
D03*
X34774D02*
D03*
X35226Y37000D02*
D03*
X34774D02*
D03*
X35226Y37500D02*
D03*
X34774D02*
D03*
X35226Y38500D02*
D03*
X34774D02*
D03*
X35226Y39000D02*
D03*
X34774D02*
D03*
D80*
X13800Y43700D02*
D03*
X13700D02*
D03*
X13600D02*
D03*
X13500D02*
D03*
X13400D02*
D03*
X13300D02*
D03*
X13200Y43706D02*
D03*
X13100Y43700D02*
D03*
X13000D02*
D03*
X12900D02*
D03*
X12800D02*
D03*
X12700D02*
D03*
X11300Y44300D02*
D03*
Y44400D02*
D03*
Y44500D02*
D03*
Y44600D02*
D03*
Y44700D02*
D03*
Y44800D02*
D03*
Y44950D02*
D03*
Y45050D02*
D03*
Y45150D02*
D03*
Y45250D02*
D03*
Y45350D02*
D03*
X13750Y46100D02*
D03*
X13650D02*
D03*
X13550D02*
D03*
X13450D02*
D03*
X13350D02*
D03*
X13250D02*
D03*
X13100D02*
D03*
X13000D02*
D03*
X12900D02*
D03*
X12800D02*
D03*
X12700D02*
D03*
X24000Y31800D02*
D03*
D81*
X41496Y47728D02*
D03*
X27717D02*
D03*
X23780Y26075D02*
D03*
X13150D02*
D03*
D82*
X10648Y38401D02*
D03*
Y40999D02*
D03*
D83*
X13200Y46069D02*
D03*
Y43706D02*
D03*
D84*
X11271Y44868D02*
D03*
D85*
X39470Y48500D02*
D03*
Y47500D02*
D03*
Y46500D02*
D03*
Y44500D02*
D03*
Y45500D02*
D03*
Y43500D02*
D03*
Y42500D02*
D03*
Y41500D02*
D03*
Y39500D02*
D03*
Y40500D02*
D03*
D86*
X42270Y28550D02*
D03*
D87*
Y29550D02*
D03*
Y30550D02*
D03*
Y31550D02*
D03*
Y32550D02*
D03*
Y33550D02*
D03*
X41270Y28550D02*
D03*
Y29550D02*
D03*
Y30550D02*
D03*
Y31550D02*
D03*
Y32550D02*
D03*
Y33550D02*
D03*
X42270Y34550D02*
D03*
X41270D02*
D03*
Y35550D02*
D03*
X42270D02*
D03*
Y37550D02*
D03*
X41270D02*
D03*
Y36550D02*
D03*
X42270D02*
D03*
D88*
X20700Y32700D02*
D03*
X19700D02*
D03*
X20700Y33700D02*
D03*
X19700D02*
D03*
X20700Y34700D02*
D03*
X19700D02*
D03*
D89*
X11250Y33100D02*
D03*
Y32100D02*
D03*
Y31100D02*
D03*
D90*
Y34100D02*
D03*
D91*
X29550Y36750D02*
D03*
X13000Y36300D02*
D03*
X17150Y34850D02*
D03*
X17500Y36000D02*
D03*
X11800Y35200D02*
D03*
X18228Y37522D02*
D03*
X28400Y36950D02*
D03*
X24150Y38100D02*
D03*
X23750Y38800D02*
D03*
X18250Y37010D02*
D03*
X22900Y34050D02*
D03*
X20900Y31250D02*
D03*
X22900Y31050D02*
D03*
X22400Y33200D02*
D03*
X22800Y37930D02*
D03*
X26913Y27663D02*
D03*
X26000Y36500D02*
D03*
X31000Y26000D02*
D03*
X29500D02*
D03*
X28000D02*
D03*
X32500D02*
D03*
X34000D02*
D03*
X28900Y27000D02*
D03*
X29400Y28500D02*
D03*
X30400Y27000D02*
D03*
X30900Y28500D02*
D03*
X31900Y27000D02*
D03*
X32400Y28500D02*
D03*
X33400Y27000D02*
D03*
X34900D02*
D03*
X35400Y28500D02*
D03*
X33900D02*
D03*
X38750Y37600D02*
D03*
Y36100D02*
D03*
Y34600D02*
D03*
Y33100D02*
D03*
Y31600D02*
D03*
X37500Y32500D02*
D03*
Y34000D02*
D03*
X36000Y33000D02*
D03*
Y34500D02*
D03*
X37500Y35500D02*
D03*
X36000Y36000D02*
D03*
X37500Y37000D02*
D03*
X36000Y37500D02*
D03*
X37500Y38500D02*
D03*
X36000Y39000D02*
D03*
X35550Y40000D02*
D03*
X34150Y46750D02*
D03*
X35550Y46000D02*
D03*
X34150Y45250D02*
D03*
Y43750D02*
D03*
X35550Y44500D02*
D03*
Y43000D02*
D03*
X34150Y42250D02*
D03*
X35550Y41500D02*
D03*
X34150Y40750D02*
D03*
D92*
X28900Y29274D02*
D03*
Y29726D02*
D03*
X29400Y29274D02*
D03*
Y29726D02*
D03*
X30400Y29274D02*
D03*
Y29726D02*
D03*
X30900Y29274D02*
D03*
Y29726D02*
D03*
X31900Y29274D02*
D03*
Y29726D02*
D03*
X32400Y29274D02*
D03*
Y29726D02*
D03*
X33400Y29274D02*
D03*
Y29726D02*
D03*
X33900Y29274D02*
D03*
Y29726D02*
D03*
X34900Y29274D02*
D03*
Y29726D02*
D03*
X35400Y29274D02*
D03*
Y29726D02*
D03*
M02*
