G04 Layer_Color=7318015*
%FSLAX24Y24*%
%MOIN*%
G70*
G01*
G75*
%ADD10R,0.0750X0.1340*%
%ADD11R,0.0748X0.0748*%
%ADD12R,0.0551X0.0630*%
%ADD13R,0.0532X0.0157*%
%ADD14R,0.0413X0.0394*%
%ADD15R,0.0276X0.0335*%
%ADD16R,0.0440X0.0400*%
%ADD17R,0.0335X0.0354*%
%ADD18R,0.0354X0.0335*%
%ADD19R,0.0315X0.0315*%
%ADD20R,0.0472X0.1378*%
%ADD21R,0.4197X0.3299*%
%ADD22R,0.0400X0.1201*%
%ADD23R,0.0400X0.0440*%
%ADD24R,0.0315X0.0400*%
%ADD25R,0.0400X0.0315*%
%ADD26O,0.0217X0.0571*%
%ADD27O,0.0571X0.0217*%
%ADD28R,0.2165X0.0787*%
%ADD29R,0.0787X0.0551*%
%ADD30O,0.0787X0.0138*%
D10*
X13132Y41600D02*
D03*
X14670D02*
D03*
D11*
X10648Y39228D02*
D03*
Y40172D02*
D03*
D12*
X11613Y38440D02*
D03*
Y40960D02*
D03*
D13*
X11702Y40212D02*
D03*
Y39188D02*
D03*
Y39444D02*
D03*
Y39956D02*
D03*
Y39700D02*
D03*
D14*
X25045Y30900D02*
D03*
X24455D02*
D03*
D15*
X11276Y36850D02*
D03*
X10824D02*
D03*
X22974Y41700D02*
D03*
X23526D02*
D03*
X10824Y35750D02*
D03*
X11276D02*
D03*
X10824Y36300D02*
D03*
X11276D02*
D03*
Y37400D02*
D03*
X10824D02*
D03*
D16*
X26987Y26050D02*
D03*
X26313D02*
D03*
X34010Y31800D02*
D03*
X34685D02*
D03*
X33960Y32500D02*
D03*
X34635D02*
D03*
X33960Y33200D02*
D03*
X34635D02*
D03*
X33960Y33900D02*
D03*
X34635D02*
D03*
X33960Y34600D02*
D03*
X34635D02*
D03*
X33960Y35300D02*
D03*
X34635D02*
D03*
X33960Y36000D02*
D03*
X34635D02*
D03*
X33960Y36700D02*
D03*
X34635D02*
D03*
X33960Y37400D02*
D03*
X34635D02*
D03*
X33960Y38100D02*
D03*
X34635D02*
D03*
X31610Y40000D02*
D03*
X32285D02*
D03*
X31610Y40750D02*
D03*
X32285D02*
D03*
X31610Y41500D02*
D03*
X32285D02*
D03*
X31610Y42250D02*
D03*
X32285D02*
D03*
X31610Y43000D02*
D03*
X32285D02*
D03*
X31610Y43750D02*
D03*
X32285D02*
D03*
X31610Y44500D02*
D03*
X32285D02*
D03*
X31610Y45250D02*
D03*
X32285D02*
D03*
X31610Y46750D02*
D03*
X32285D02*
D03*
X31610Y46000D02*
D03*
X32285D02*
D03*
D17*
X26394Y26750D02*
D03*
X26906D02*
D03*
X26106Y38900D02*
D03*
X25594D02*
D03*
D18*
X24250Y41694D02*
D03*
Y42206D02*
D03*
X22250Y41694D02*
D03*
Y42206D02*
D03*
D19*
X12465Y37400D02*
D03*
X11835D02*
D03*
X12465Y36850D02*
D03*
X11835D02*
D03*
X11835Y35750D02*
D03*
X12465D02*
D03*
X11835Y36300D02*
D03*
X12465D02*
D03*
D20*
X22050Y47799D02*
D03*
Y45201D02*
D03*
D21*
X17900Y46651D02*
D03*
D22*
X18900Y42200D02*
D03*
X16900D02*
D03*
D23*
X31500Y30340D02*
D03*
Y29665D02*
D03*
X27350Y30390D02*
D03*
Y29715D02*
D03*
X32400Y30390D02*
D03*
Y29715D02*
D03*
X28000Y30390D02*
D03*
Y29715D02*
D03*
X33100Y30390D02*
D03*
Y29715D02*
D03*
X28700Y30390D02*
D03*
Y29715D02*
D03*
X33800Y30390D02*
D03*
Y29715D02*
D03*
X29500Y30390D02*
D03*
Y29715D02*
D03*
X34500Y30390D02*
D03*
Y29715D02*
D03*
X30500Y30440D02*
D03*
Y29765D02*
D03*
D24*
X33750Y44650D02*
D03*
X34150Y43750D02*
D03*
X33350D02*
D03*
X35150Y40900D02*
D03*
X35550Y40000D02*
D03*
X34750D02*
D03*
X36000Y36000D02*
D03*
X36400Y35100D02*
D03*
X35600D02*
D03*
X37500Y32500D02*
D03*
X37900Y31600D02*
D03*
X37100D02*
D03*
X35150Y45400D02*
D03*
X35550Y44500D02*
D03*
X34750D02*
D03*
X33750Y41650D02*
D03*
X34150Y40750D02*
D03*
X33350D02*
D03*
X37500Y37000D02*
D03*
X37900Y36100D02*
D03*
X37100D02*
D03*
X36000Y33000D02*
D03*
X36400Y32100D02*
D03*
X35600D02*
D03*
X33750Y46150D02*
D03*
X34150Y45250D02*
D03*
X33350D02*
D03*
X35150Y42400D02*
D03*
X35550Y41500D02*
D03*
X34750D02*
D03*
X36000Y37500D02*
D03*
X36400Y36600D02*
D03*
X35600D02*
D03*
X37500Y34000D02*
D03*
X37900Y33100D02*
D03*
X37100D02*
D03*
X35150Y46900D02*
D03*
X35550Y46000D02*
D03*
X34750D02*
D03*
X33750Y43150D02*
D03*
X34150Y42250D02*
D03*
X33350D02*
D03*
X37500Y38500D02*
D03*
X37900Y37600D02*
D03*
X37100D02*
D03*
X36000Y34500D02*
D03*
X36400Y33600D02*
D03*
X35600D02*
D03*
X33750Y47650D02*
D03*
X34150Y46750D02*
D03*
X33350D02*
D03*
X35150Y43900D02*
D03*
X35550Y43000D02*
D03*
X34750D02*
D03*
X36000Y39000D02*
D03*
X36400Y38100D02*
D03*
X35600D02*
D03*
X37500Y35500D02*
D03*
X37900Y34600D02*
D03*
X37100D02*
D03*
D25*
X32400Y28500D02*
D03*
X31500Y28100D02*
D03*
Y28900D02*
D03*
X28900Y27000D02*
D03*
X28000Y26600D02*
D03*
Y27400D02*
D03*
X33400Y27000D02*
D03*
X32500Y26600D02*
D03*
Y27400D02*
D03*
X29400Y28500D02*
D03*
X28500Y28100D02*
D03*
Y28900D02*
D03*
X33900Y28500D02*
D03*
X33000Y28100D02*
D03*
Y28900D02*
D03*
X30400Y27000D02*
D03*
X29500Y26600D02*
D03*
Y27400D02*
D03*
X34900Y27000D02*
D03*
X34000Y26600D02*
D03*
Y27400D02*
D03*
X30900Y28500D02*
D03*
X30000Y28100D02*
D03*
Y28900D02*
D03*
X35400Y28500D02*
D03*
X34500Y28100D02*
D03*
Y28900D02*
D03*
X31900Y27000D02*
D03*
X31000Y26600D02*
D03*
Y27400D02*
D03*
D26*
X25338Y37842D02*
D03*
X25653D02*
D03*
X25968D02*
D03*
X26283D02*
D03*
X26598D02*
D03*
X26913D02*
D03*
X27228D02*
D03*
X27543D02*
D03*
X27857D02*
D03*
X28172D02*
D03*
X28487D02*
D03*
X28802D02*
D03*
X29117D02*
D03*
X29432D02*
D03*
X29747D02*
D03*
X30062D02*
D03*
Y31858D02*
D03*
X29747D02*
D03*
X29432D02*
D03*
X29117D02*
D03*
X28802D02*
D03*
X28487D02*
D03*
X28172D02*
D03*
X27857D02*
D03*
X27543D02*
D03*
X27228D02*
D03*
X26913D02*
D03*
X26598D02*
D03*
X26283D02*
D03*
X25968D02*
D03*
X25653D02*
D03*
X25338D02*
D03*
D27*
X30692Y37212D02*
D03*
Y36897D02*
D03*
Y36582D02*
D03*
Y36267D02*
D03*
Y35952D02*
D03*
Y35637D02*
D03*
Y35322D02*
D03*
Y35007D02*
D03*
Y34693D02*
D03*
Y34378D02*
D03*
Y34063D02*
D03*
Y33748D02*
D03*
Y33433D02*
D03*
Y33118D02*
D03*
Y32803D02*
D03*
Y32488D02*
D03*
X24708D02*
D03*
Y32803D02*
D03*
Y33118D02*
D03*
Y33433D02*
D03*
Y33748D02*
D03*
Y34063D02*
D03*
Y34378D02*
D03*
Y34693D02*
D03*
Y35007D02*
D03*
Y35322D02*
D03*
Y35637D02*
D03*
Y35952D02*
D03*
Y36267D02*
D03*
Y36582D02*
D03*
Y36897D02*
D03*
Y37212D02*
D03*
D28*
X20480Y40250D02*
D03*
X24220D02*
D03*
D29*
X22378Y29436D02*
D03*
X25922D02*
D03*
X22378Y27664D02*
D03*
X25922D02*
D03*
D30*
X16787Y35987D02*
D03*
Y36243D02*
D03*
Y36498D02*
D03*
Y36754D02*
D03*
Y37010D02*
D03*
Y37266D02*
D03*
Y37522D02*
D03*
Y37778D02*
D03*
Y38034D02*
D03*
Y38290D02*
D03*
Y38546D02*
D03*
Y38802D02*
D03*
Y39057D02*
D03*
Y39313D02*
D03*
X13913D02*
D03*
Y39057D02*
D03*
Y38802D02*
D03*
Y38546D02*
D03*
Y38290D02*
D03*
Y38034D02*
D03*
Y37778D02*
D03*
Y37522D02*
D03*
Y37266D02*
D03*
Y37010D02*
D03*
Y36754D02*
D03*
Y36498D02*
D03*
Y36243D02*
D03*
Y35987D02*
D03*
M02*
