G04 Layer_Color=15132400*
%FSLAX24Y24*%
%MOIN*%
G70*
G01*
G75*
%ADD32C,0.0100*%
%ADD46C,0.0098*%
%ADD47C,0.0236*%
%ADD48C,0.0197*%
%ADD49C,0.0079*%
%ADD50C,0.0080*%
%ADD51C,0.0220*%
%ADD52C,0.0050*%
%ADD53C,0.0070*%
%ADD54R,0.0300X0.0180*%
%ADD55R,0.1614X0.0139*%
%ADD56R,0.0180X0.0300*%
G36*
X40228Y48763D02*
X40235D01*
X40242Y48762D01*
X40250Y48762D01*
X40267Y48760D01*
X40286Y48757D01*
X40303Y48754D01*
X40312Y48752D01*
X40320Y48749D01*
X40321D01*
X40322Y48748D01*
X40324Y48747D01*
X40327Y48746D01*
X40331Y48745D01*
X40335Y48743D01*
X40344Y48738D01*
X40354Y48733D01*
X40365Y48726D01*
X40375Y48717D01*
X40384Y48707D01*
Y48707D01*
X40386Y48706D01*
X40387Y48705D01*
X40388Y48702D01*
X40389Y48700D01*
X40392Y48697D01*
X40396Y48688D01*
X40399Y48678D01*
X40403Y48667D01*
X40406Y48653D01*
X40407Y48638D01*
Y48637D01*
Y48636D01*
Y48632D01*
X40406Y48629D01*
X40406Y48624D01*
X40404Y48619D01*
X40403Y48612D01*
X40402Y48606D01*
X40399Y48599D01*
X40397Y48592D01*
X40394Y48585D01*
X40390Y48577D01*
X40386Y48570D01*
X40380Y48563D01*
X40374Y48556D01*
X40367Y48550D01*
X40367Y48550D01*
X40365Y48549D01*
X40362Y48547D01*
X40358Y48544D01*
X40353Y48541D01*
X40346Y48539D01*
X40338Y48535D01*
X40330Y48531D01*
X40320Y48528D01*
X40308Y48525D01*
X40295Y48521D01*
X40281Y48519D01*
X40265Y48516D01*
X40248Y48514D01*
X40230Y48513D01*
X40211Y48513D01*
X40200D01*
X40194Y48513D01*
X40187D01*
X40180Y48514D01*
X40171Y48514D01*
X40154Y48516D01*
X40136Y48519D01*
X40118Y48522D01*
X40109Y48524D01*
X40101Y48526D01*
X40100D01*
X40099Y48527D01*
X40097Y48528D01*
X40094Y48529D01*
X40090Y48530D01*
X40086Y48532D01*
X40077Y48537D01*
X40067Y48542D01*
X40056Y48550D01*
X40046Y48558D01*
X40037Y48568D01*
Y48569D01*
X40036Y48569D01*
X40035Y48571D01*
X40034Y48573D01*
X40031Y48576D01*
X40030Y48579D01*
X40025Y48587D01*
X40021Y48597D01*
X40018Y48609D01*
X40015Y48623D01*
X40014Y48638D01*
Y48639D01*
Y48639D01*
Y48641D01*
Y48643D01*
X40015Y48649D01*
X40016Y48656D01*
X40018Y48665D01*
X40020Y48673D01*
X40023Y48683D01*
X40027Y48692D01*
Y48692D01*
X40028Y48693D01*
X40029Y48696D01*
X40032Y48700D01*
X40036Y48706D01*
X40041Y48712D01*
X40048Y48718D01*
X40055Y48725D01*
X40063Y48731D01*
X40064Y48731D01*
X40067Y48733D01*
X40072Y48736D01*
X40079Y48740D01*
X40088Y48743D01*
X40097Y48747D01*
X40108Y48751D01*
X40120Y48754D01*
X40121D01*
X40122Y48755D01*
X40124Y48756D01*
X40126Y48756D01*
X40130Y48757D01*
X40134Y48757D01*
X40139Y48758D01*
X40144Y48759D01*
X40150Y48760D01*
X40157Y48761D01*
X40165Y48761D01*
X40172Y48762D01*
X40181Y48763D01*
X40190D01*
X40200Y48763D01*
X40222D01*
X40228Y48763D01*
D02*
G37*
G36*
X40400Y48344D02*
X40100D01*
X40100Y48344D01*
X40103Y48341D01*
X40106Y48338D01*
X40110Y48332D01*
X40115Y48326D01*
X40120Y48318D01*
X40126Y48309D01*
X40132Y48299D01*
Y48299D01*
X40133Y48298D01*
X40135Y48295D01*
X40138Y48289D01*
X40141Y48283D01*
X40145Y48275D01*
X40149Y48267D01*
X40153Y48258D01*
X40156Y48250D01*
X40111D01*
Y48251D01*
X40110Y48252D01*
X40109Y48254D01*
X40108Y48257D01*
X40106Y48260D01*
X40104Y48264D01*
X40098Y48273D01*
X40092Y48284D01*
X40084Y48296D01*
X40075Y48307D01*
X40066Y48319D01*
X40065Y48319D01*
X40065Y48320D01*
X40063Y48322D01*
X40061Y48324D01*
X40056Y48329D01*
X40049Y48335D01*
X40041Y48342D01*
X40033Y48349D01*
X40024Y48355D01*
X40014Y48361D01*
Y48392D01*
X40400D01*
Y48344D01*
D02*
G37*
G36*
X40450Y39594D02*
X40150D01*
X40150Y39594D01*
X40153Y39591D01*
X40156Y39588D01*
X40160Y39582D01*
X40165Y39576D01*
X40170Y39568D01*
X40176Y39559D01*
X40182Y39549D01*
Y39549D01*
X40183Y39548D01*
X40185Y39545D01*
X40188Y39539D01*
X40191Y39533D01*
X40195Y39525D01*
X40199Y39517D01*
X40203Y39508D01*
X40206Y39500D01*
X40161D01*
Y39501D01*
X40160Y39502D01*
X40159Y39504D01*
X40158Y39507D01*
X40156Y39510D01*
X40154Y39514D01*
X40148Y39523D01*
X40142Y39534D01*
X40134Y39546D01*
X40125Y39557D01*
X40116Y39569D01*
X40115Y39569D01*
X40115Y39570D01*
X40113Y39572D01*
X40111Y39574D01*
X40106Y39579D01*
X40099Y39585D01*
X40091Y39592D01*
X40083Y39599D01*
X40074Y39605D01*
X40064Y39611D01*
Y39642D01*
X40450D01*
Y39594D01*
D02*
G37*
%LPC*%
G36*
X40228Y48715D02*
X40202D01*
X40195Y48715D01*
X40188D01*
X40179Y48714D01*
X40170Y48713D01*
X40159Y48712D01*
X40138Y48710D01*
X40127Y48708D01*
X40118Y48706D01*
X40108Y48703D01*
X40099Y48700D01*
X40091Y48697D01*
X40085Y48693D01*
X40084D01*
X40084Y48692D01*
X40082Y48691D01*
X40080Y48689D01*
X40075Y48684D01*
X40069Y48678D01*
X40063Y48670D01*
X40058Y48660D01*
X40056Y48655D01*
X40054Y48650D01*
X40054Y48643D01*
X40053Y48637D01*
Y48637D01*
Y48636D01*
Y48634D01*
X40054Y48632D01*
X40055Y48626D01*
X40056Y48619D01*
X40060Y48610D01*
X40065Y48601D01*
X40068Y48597D01*
X40071Y48592D01*
X40076Y48589D01*
X40081Y48585D01*
X40081D01*
X40083Y48584D01*
X40085Y48582D01*
X40088Y48581D01*
X40092Y48579D01*
X40097Y48577D01*
X40103Y48575D01*
X40110Y48573D01*
X40119Y48571D01*
X40128Y48569D01*
X40139Y48566D01*
X40150Y48565D01*
X40164Y48563D01*
X40178Y48562D01*
X40194Y48561D01*
X40211Y48561D01*
X40220D01*
X40226Y48561D01*
X40233D01*
X40242Y48562D01*
X40252Y48562D01*
X40262Y48564D01*
X40283Y48566D01*
X40294Y48568D01*
X40304Y48570D01*
X40313Y48572D01*
X40322Y48576D01*
X40330Y48579D01*
X40337Y48583D01*
X40337D01*
X40338Y48584D01*
X40342Y48587D01*
X40347Y48592D01*
X40352Y48598D01*
X40358Y48606D01*
X40363Y48616D01*
X40367Y48626D01*
X40367Y48632D01*
X40368Y48638D01*
Y48639D01*
Y48640D01*
Y48641D01*
X40367Y48643D01*
X40366Y48649D01*
X40364Y48657D01*
X40360Y48665D01*
X40354Y48675D01*
X40351Y48679D01*
X40347Y48683D01*
X40342Y48688D01*
X40337Y48692D01*
X40336D01*
X40335Y48693D01*
X40333Y48695D01*
X40331Y48696D01*
X40327Y48698D01*
X40322Y48700D01*
X40316Y48702D01*
X40310Y48704D01*
X40301Y48706D01*
X40292Y48708D01*
X40282Y48710D01*
X40271Y48712D01*
X40257Y48713D01*
X40243Y48714D01*
X40228Y48715D01*
D02*
G37*
%LPD*%
D32*
X16817Y35682D02*
G03*
X16817Y35682I-49J0D01*
G01*
X16010Y36085D02*
G03*
X16010Y36085I-49J0D01*
G01*
X24680Y28550D02*
G03*
X24680Y28550I-530J0D01*
G01*
X14464Y35800D02*
X16236D01*
X14464D02*
Y39500D01*
X16236D01*
Y35800D02*
Y39500D01*
X10250Y34600D02*
X12500D01*
X10250Y30600D02*
Y34600D01*
Y30600D02*
X12500D01*
Y34600D01*
X11900Y30600D02*
Y34550D01*
X42720Y28050D02*
Y38050D01*
X42720D01*
X40820D02*
X42720D01*
X40820Y28050D02*
Y38050D01*
Y28050D02*
X42720D01*
X39050Y39000D02*
Y44060D01*
X39850Y39000D02*
Y43900D01*
X39050Y39000D02*
X39850D01*
X39050Y44060D02*
Y49000D01*
X39850Y43900D02*
Y49000D01*
X39050D02*
X39850D01*
X23000Y44000D02*
Y44500D01*
X22750Y44250D02*
X23250D01*
X11271Y49100D02*
X14950D01*
X10800Y43862D02*
Y45850D01*
X11271Y43391D02*
X14950D01*
Y49100D01*
X11271Y46321D02*
Y49100D01*
X10800Y43862D02*
X11271D01*
Y43391D02*
Y43862D01*
Y45850D02*
Y46321D01*
X10800Y45850D02*
X11271D01*
X11500Y25750D02*
Y29500D01*
X19750D01*
X19250Y30000D02*
X19750Y29500D01*
X19250Y29000D02*
X19750Y29500D01*
X11500Y25750D02*
X12000Y26250D01*
X11000D02*
X11500Y25750D01*
X22440Y30600D02*
X22340Y30700D01*
X22140D01*
X22040Y30600D01*
Y30500D01*
X22140Y30400D01*
X22340D01*
X22440Y30300D01*
Y30200D01*
X22340Y30100D01*
X22140D01*
X22040Y30200D01*
X22640Y30100D02*
X22840D01*
X22740D01*
Y30700D01*
X22640Y30600D01*
X25890Y39950D02*
X25790Y40050D01*
X25590D01*
X25490Y39950D01*
Y39550D01*
X25590Y39450D01*
X25790D01*
X25890Y39550D01*
X26390Y39450D02*
Y40050D01*
X26090Y39750D01*
X26490D01*
X12050Y43050D02*
X11650D01*
Y42750D01*
X11850D01*
X11650D01*
Y42450D01*
X12250D02*
X12450D01*
X12350D01*
Y43050D01*
X12250Y42950D01*
X13560Y40740D02*
Y40240D01*
X13660Y40140D01*
X13860D01*
X13960Y40240D01*
Y40740D01*
X14560Y40140D02*
X14160D01*
X14560Y40540D01*
Y40640D01*
X14460Y40740D01*
X14260D01*
X14160Y40640D01*
X24480Y39070D02*
Y38570D01*
X24580Y38470D01*
X24780D01*
X24880Y38570D01*
Y39070D01*
X25080Y38470D02*
X25280D01*
X25180D01*
Y39070D01*
X25080Y38970D01*
X19450Y42180D02*
Y42080D01*
X19650Y41880D01*
X19850Y42080D01*
Y42180D01*
X19650Y41880D02*
Y41580D01*
X20050D02*
X20250D01*
X20150D01*
Y42180D01*
X20050Y42080D01*
X41270Y39000D02*
X41070D01*
X41170D01*
Y38500D01*
X41070Y38400D01*
X40970D01*
X40870Y38500D01*
X41870Y38400D02*
X41470D01*
X41870Y38800D01*
Y38900D01*
X41770Y39000D01*
X41570D01*
X41470Y38900D01*
X20950Y49050D02*
X20850Y49150D01*
X20650D01*
X20550Y49050D01*
Y48650D01*
X20650Y48550D01*
X20850D01*
X20950Y48650D01*
X21550Y49150D02*
X21350Y49050D01*
X21150Y48850D01*
Y48650D01*
X21250Y48550D01*
X21450D01*
X21550Y48650D01*
Y48750D01*
X21450Y48850D01*
X21150D01*
X15855Y49245D02*
Y48745D01*
X15955Y48645D01*
X16155D01*
X16255Y48745D01*
Y49245D01*
X16455Y49145D02*
X16555Y49245D01*
X16755D01*
X16855Y49145D01*
Y49045D01*
X16755Y48945D01*
X16655D01*
X16755D01*
X16855Y48845D01*
Y48745D01*
X16755Y48645D01*
X16555D01*
X16455Y48745D01*
X10400Y42150D02*
Y41650D01*
X10500Y41550D01*
X10700D01*
X10800Y41650D01*
Y42150D01*
X11400Y42050D02*
X11300Y42150D01*
X11100D01*
X11000Y42050D01*
Y41950D01*
X11100Y41850D01*
X11300D01*
X11400Y41750D01*
Y41650D01*
X11300Y41550D01*
X11100D01*
X11000Y41650D01*
X11600Y42150D02*
Y41550D01*
X11900D01*
X11999Y41650D01*
Y41750D01*
X11900Y41850D01*
X11600D01*
X11900D01*
X11999Y41950D01*
Y42050D01*
X11900Y42150D01*
X11600D01*
X10400Y47950D02*
Y47750D01*
Y47850D01*
X11000D01*
X10900Y47950D01*
X10400Y47050D02*
Y47450D01*
X10800Y47050D01*
X10900D01*
X11000Y47150D01*
Y47350D01*
X10900Y47450D01*
X11000Y46850D02*
X10600D01*
X10400Y46650D01*
X10600Y46450D01*
X11000D01*
X40900Y42700D02*
X40500D01*
X40300Y42900D01*
X40500Y43100D01*
X40900D01*
X40600D01*
Y42700D01*
X40900Y43300D02*
X40500D01*
Y43600D01*
X40600Y43700D01*
X40900D01*
Y44000D02*
Y44200D01*
X40800Y44299D01*
X40600D01*
X40500Y44200D01*
Y44000D01*
X40600Y43900D01*
X40800D01*
X40900Y44000D01*
X40300Y44899D02*
X40900D01*
Y44599D01*
X40800Y44499D01*
X40600D01*
X40500Y44599D01*
Y44899D01*
X40900Y45399D02*
Y45199D01*
X40800Y45099D01*
X40600D01*
X40500Y45199D01*
Y45399D01*
X40600Y45499D01*
X40700D01*
Y45099D01*
X40900Y45699D02*
Y45999D01*
X40800Y46099D01*
X40700Y45999D01*
Y45799D01*
X40600Y45699D01*
X40500Y45799D01*
Y46099D01*
X19200Y36000D02*
X19400D01*
X19300D01*
Y35400D01*
X19200D01*
X19400D01*
X20100Y35900D02*
X20000Y36000D01*
X19800D01*
X19700Y35900D01*
Y35500D01*
X19800Y35400D01*
X20000D01*
X20100Y35500D01*
X20700Y35900D02*
X20600Y36000D01*
X20400D01*
X20300Y35900D01*
Y35800D01*
X20400Y35700D01*
X20600D01*
X20700Y35600D01*
Y35500D01*
X20600Y35400D01*
X20400D01*
X20300Y35500D01*
X20899Y35400D02*
Y36000D01*
X21199D01*
X21299Y35900D01*
Y35700D01*
X21199Y35600D01*
X20899D01*
X10550Y28100D02*
Y28000D01*
X10750Y27800D01*
X10950Y28000D01*
Y28100D01*
X10750Y27800D02*
Y27500D01*
X15300Y30400D02*
X15700Y29800D01*
Y30400D02*
X15300Y29800D01*
X39900Y31800D02*
X39800Y31700D01*
Y31500D01*
X39900Y31400D01*
X40300D01*
X40400Y31500D01*
Y31700D01*
X40300Y31800D01*
X40000Y32100D02*
Y32300D01*
X40100Y32400D01*
X40400D01*
Y32100D01*
X40300Y32000D01*
X40200Y32100D01*
Y32400D01*
X39900Y32700D02*
X40000D01*
Y32600D01*
Y32800D01*
Y32700D01*
X40300D01*
X40400Y32800D01*
X39800Y33099D02*
X40400D01*
X40100D01*
X40000Y33199D01*
Y33399D01*
X40100Y33499D01*
X40400D01*
Y33799D02*
Y33999D01*
X40300Y34099D01*
X40100D01*
X40000Y33999D01*
Y33799D01*
X40100Y33699D01*
X40300D01*
X40400Y33799D01*
X39800Y34699D02*
X40400D01*
Y34399D01*
X40300Y34299D01*
X40100D01*
X40000Y34399D01*
Y34699D01*
X40400Y35199D02*
Y34999D01*
X40300Y34899D01*
X40100D01*
X40000Y34999D01*
Y35199D01*
X40100Y35299D01*
X40200D01*
Y34899D01*
X40400Y35499D02*
Y35799D01*
X40300Y35899D01*
X40200Y35799D01*
Y35599D01*
X40100Y35499D01*
X40000Y35599D01*
Y35899D01*
X12450Y28150D02*
X12050D01*
X12450Y28550D01*
Y28650D01*
X12350Y28750D01*
X12150D01*
X12050Y28650D01*
X12650D02*
X12750Y28750D01*
X12950D01*
X13050Y28650D01*
Y28250D01*
X12950Y28150D01*
X12750D01*
X12650Y28250D01*
Y28650D01*
X13250Y28550D02*
X13649Y28150D01*
X13450Y28350D01*
X13649Y28550D01*
X13250Y28150D01*
X13849D02*
X14049D01*
X13949D01*
Y28750D01*
X13849Y28650D01*
X14349D02*
X14449Y28750D01*
X14649D01*
X14749Y28650D01*
Y28250D01*
X14649Y28150D01*
X14449D01*
X14349Y28250D01*
Y28650D01*
X15549Y28750D02*
Y28150D01*
X15949D01*
X16549Y28750D02*
X16149D01*
Y28150D01*
X16549D01*
X16149Y28450D02*
X16349D01*
X16748Y28750D02*
Y28150D01*
X17048D01*
X17148Y28250D01*
Y28650D01*
X17048Y28750D01*
X16748D01*
X17948Y28150D02*
Y28750D01*
X18148Y28550D01*
X18348Y28750D01*
Y28150D01*
X18648Y28550D02*
X18848D01*
X18948Y28450D01*
Y28150D01*
X18648D01*
X18548Y28250D01*
X18648Y28350D01*
X18948D01*
X19248Y28650D02*
Y28550D01*
X19148D01*
X19348D01*
X19248D01*
Y28250D01*
X19348Y28150D01*
X19648Y28550D02*
Y28150D01*
Y28350D01*
X19748Y28450D01*
X19847Y28550D01*
X19947D01*
X20247Y28150D02*
X20447D01*
X20347D01*
Y28550D01*
X20247D01*
X20747D02*
X21147Y28150D01*
X20947Y28350D01*
X21147Y28550D01*
X20747Y28150D01*
X15300Y26600D02*
Y26000D01*
X15500Y26200D01*
X15700Y26000D01*
Y26600D01*
X15900Y26000D02*
X16100D01*
X16000D01*
Y26400D01*
X15900D01*
X16400Y26000D02*
X16600D01*
X16500D01*
Y26600D01*
X16400D01*
X16899Y26000D02*
X17099D01*
X16999D01*
Y26600D01*
X16899D01*
X17399Y26000D02*
X17599D01*
X17499D01*
Y26400D01*
X17399D01*
X17999D02*
X18199D01*
X18299Y26300D01*
Y26000D01*
X17999D01*
X17899Y26100D01*
X17999Y26200D01*
X18299D01*
X18499Y26000D02*
Y26400D01*
X18599D01*
X18699Y26300D01*
Y26000D01*
Y26300D01*
X18799Y26400D01*
X18899Y26300D01*
Y26000D01*
X19699D02*
Y26600D01*
X19998D01*
X20098Y26500D01*
Y26300D01*
X19998Y26200D01*
X19699D01*
X19899D02*
X20098Y26000D01*
X20298D02*
X20498D01*
X20398D01*
Y26400D01*
X20298D01*
X20998Y25800D02*
X21098D01*
X21198Y25900D01*
Y26400D01*
X20898D01*
X20798Y26300D01*
Y26100D01*
X20898Y26000D01*
X21198D01*
X21398Y26600D02*
Y26000D01*
X21698D01*
X21798Y26100D01*
Y26200D01*
Y26300D01*
X21698Y26400D01*
X21398D01*
X21998D02*
Y26100D01*
X22098Y26000D01*
X22398D01*
Y25900D01*
X22298Y25800D01*
X22198D01*
X22398Y26000D02*
Y26400D01*
D46*
X24757Y37537D02*
G03*
X24757Y37537I-49J0D01*
G01*
X31156Y27748D02*
G03*
X31156Y27748I-49J0D01*
G01*
X34656Y29248D02*
G03*
X34656Y29248I-49J0D01*
G01*
X36801Y34706D02*
G03*
X36801Y34706I-49J0D01*
G01*
X35301Y38206D02*
G03*
X35301Y38206I-49J0D01*
G01*
X34451Y43106D02*
G03*
X34451Y43106I-49J0D01*
G01*
X33051Y46856D02*
G03*
X33051Y46856I-49J0D01*
G01*
X30156Y29248D02*
G03*
X30156Y29248I-49J0D01*
G01*
X34156Y27748D02*
G03*
X34156Y27748I-49J0D01*
G01*
X35301Y33706D02*
G03*
X35301Y33706I-49J0D01*
G01*
X36801Y37706D02*
G03*
X36801Y37706I-49J0D01*
G01*
X33051Y42356D02*
G03*
X33051Y42356I-49J0D01*
G01*
X34451Y46106D02*
G03*
X34451Y46106I-49J0D01*
G01*
X29656Y27748D02*
G03*
X29656Y27748I-49J0D01*
G01*
X33156Y29248D02*
G03*
X33156Y29248I-49J0D01*
G01*
X36801Y33206D02*
G03*
X36801Y33206I-49J0D01*
G01*
X35301Y36706D02*
G03*
X35301Y36706I-49J0D01*
G01*
X34451Y41606D02*
G03*
X34451Y41606I-49J0D01*
G01*
X33051Y45356D02*
G03*
X33051Y45356I-49J0D01*
G01*
X28656Y29248D02*
G03*
X28656Y29248I-49J0D01*
G01*
X32656Y27748D02*
G03*
X32656Y27748I-49J0D01*
G01*
X35301Y32206D02*
G03*
X35301Y32206I-49J0D01*
G01*
X36801Y36206D02*
G03*
X36801Y36206I-49J0D01*
G01*
X33051Y40856D02*
G03*
X33051Y40856I-49J0D01*
G01*
X34451Y44606D02*
G03*
X34451Y44606I-49J0D01*
G01*
X28156Y27748D02*
G03*
X28156Y27748I-49J0D01*
G01*
X31656Y29248D02*
G03*
X31656Y29248I-49J0D01*
G01*
X36801Y31706D02*
G03*
X36801Y31706I-49J0D01*
G01*
X35301Y35206D02*
G03*
X35301Y35206I-49J0D01*
G01*
X34451Y40106D02*
G03*
X34451Y40106I-49J0D01*
G01*
X33051Y43856D02*
G03*
X33051Y43856I-49J0D01*
G01*
X16533Y42200D02*
G03*
X16533Y42200I-49J0D01*
G01*
D47*
X25672Y36996D02*
G03*
X25672Y36996I-118J0D01*
G01*
D48*
X23166Y29704D02*
X25134D01*
X23166Y27396D02*
Y29704D01*
Y27396D02*
X25107D01*
X25134D02*
Y29704D01*
X25107Y27396D02*
X25134D01*
D49*
X20047Y40801D02*
Y41234D01*
X24653Y40801D02*
Y41234D01*
X20047Y39266D02*
Y39699D01*
X24653Y39266D02*
Y39699D01*
X20047Y41234D02*
X24653D01*
X20047Y39266D02*
X24653D01*
X25161Y32311D02*
Y37389D01*
X30239Y32311D02*
Y37389D01*
X25161D02*
X30239D01*
X25161Y32311D02*
X30239D01*
X31435Y27575D02*
X31756D01*
Y27315D02*
Y27575D01*
X31435Y26425D02*
X31756D01*
Y26685D01*
X34935Y29075D02*
X35256D01*
Y28815D02*
Y29075D01*
X34935Y27925D02*
X35256D01*
Y28185D01*
X36925Y35035D02*
Y35356D01*
X37185D01*
X38075Y35035D02*
Y35356D01*
X37815D02*
X38075D01*
X35425Y38535D02*
Y38856D01*
X35685D01*
X36575Y38535D02*
Y38856D01*
X36315D02*
X36575D01*
X34575Y43435D02*
Y43756D01*
X34835D01*
X35725Y43435D02*
Y43756D01*
X35465D02*
X35725D01*
X33175Y47185D02*
Y47506D01*
X33435D01*
X34325Y47185D02*
Y47506D01*
X34065D02*
X34325D01*
X30435Y29075D02*
X30756D01*
Y28815D02*
Y29075D01*
X30435Y27925D02*
X30756D01*
Y28185D01*
X34435Y27575D02*
X34756D01*
Y27315D02*
Y27575D01*
X34435Y26425D02*
X34756D01*
Y26685D01*
X35425Y34035D02*
Y34356D01*
X35685D01*
X36575Y34035D02*
Y34356D01*
X36315D02*
X36575D01*
X36925Y38035D02*
Y38356D01*
X37185D01*
X38075Y38035D02*
Y38356D01*
X37815D02*
X38075D01*
X33175Y42685D02*
Y43006D01*
X33435D01*
X34325Y42685D02*
Y43006D01*
X34065D02*
X34325D01*
X34575Y46435D02*
Y46756D01*
X34835D01*
X35725Y46435D02*
Y46756D01*
X35465D02*
X35725D01*
X29935Y27575D02*
X30256D01*
Y27315D02*
Y27575D01*
X29935Y26425D02*
X30256D01*
Y26685D01*
X33435Y29075D02*
X33756D01*
Y28815D02*
Y29075D01*
X33435Y27925D02*
X33756D01*
Y28185D01*
X36925Y33535D02*
Y33856D01*
X37185D01*
X38075Y33535D02*
Y33856D01*
X37815D02*
X38075D01*
X35425Y37035D02*
Y37356D01*
X35685D01*
X36575Y37035D02*
Y37356D01*
X36315D02*
X36575D01*
X34575Y41935D02*
Y42256D01*
X34835D01*
X35725Y41935D02*
Y42256D01*
X35465D02*
X35725D01*
X33175Y45685D02*
Y46006D01*
X33435D01*
X34325Y45685D02*
Y46006D01*
X34065D02*
X34325D01*
X28935Y29075D02*
X29256D01*
Y28815D02*
Y29075D01*
X28935Y27925D02*
X29256D01*
Y28185D01*
X32935Y27575D02*
X33256D01*
Y27315D02*
Y27575D01*
X32935Y26425D02*
X33256D01*
Y26685D01*
X35425Y32535D02*
Y32856D01*
X35685D01*
X36575Y32535D02*
Y32856D01*
X36315D02*
X36575D01*
X36925Y36535D02*
Y36856D01*
X37185D01*
X38075Y36535D02*
Y36856D01*
X37815D02*
X38075D01*
X33175Y41185D02*
Y41506D01*
X33435D01*
X34325Y41185D02*
Y41506D01*
X34065D02*
X34325D01*
X34575Y44935D02*
Y45256D01*
X34835D01*
X35725Y44935D02*
Y45256D01*
X35465D02*
X35725D01*
X28435Y27575D02*
X28756D01*
Y27315D02*
Y27575D01*
X28435Y26425D02*
X28756D01*
Y26685D01*
X31935Y29075D02*
X32256D01*
Y28815D02*
Y29075D01*
X31935Y27925D02*
X32256D01*
Y28185D01*
X36925Y32035D02*
Y32356D01*
X37185D01*
X38075Y32035D02*
Y32356D01*
X37815D02*
X38075D01*
X35425Y35535D02*
Y35856D01*
X35685D01*
X36575Y35535D02*
Y35856D01*
X36315D02*
X36575D01*
X34575Y40435D02*
Y40756D01*
X34835D01*
X35725Y40435D02*
Y40756D01*
X35465D02*
X35725D01*
X33175Y44185D02*
Y44506D01*
X33435D01*
X34325Y44185D02*
Y44506D01*
X34065D02*
X34325D01*
X15882Y43572D02*
Y44844D01*
X15892Y43572D02*
X19908D01*
X19918D02*
Y44844D01*
X11559Y36182D02*
Y36418D01*
Y35632D02*
Y35868D01*
X12741Y36732D02*
Y36968D01*
Y37282D02*
Y37518D01*
D50*
X21332Y32450D02*
Y32950D01*
X21200Y32450D02*
Y32950D01*
Y33450D02*
Y33950D01*
Y34450D02*
Y34950D01*
X19450Y35200D02*
X20950D01*
X19450Y34200D02*
X20950D01*
X19450Y33200D02*
X20950D01*
X19200Y34950D02*
X19450Y35200D01*
X19200Y34450D02*
Y34950D01*
Y34450D02*
X19450Y34200D01*
X19200Y33950D02*
X19450Y34200D01*
X19200Y33450D02*
Y33950D01*
Y33450D02*
X19450Y33200D01*
X19200Y32950D02*
X19450Y33200D01*
X19200Y32450D02*
Y32950D01*
Y32450D02*
X19450Y32200D01*
X20950D01*
Y35200D02*
X21200Y34950D01*
X20950Y34200D02*
X21200Y34450D01*
X20950Y34200D02*
X21200Y33950D01*
X20950Y33200D02*
X21200Y33450D01*
X20950Y33200D02*
X21200Y32950D01*
X20950Y32200D02*
X21200Y32450D01*
X23684Y44860D02*
Y48134D01*
X20416Y44860D02*
Y48134D01*
X23684D01*
X20416Y44860D02*
X23684D01*
X24300Y42800D02*
X24250Y42850D01*
X24150D01*
X24100Y42800D01*
Y42600D01*
X24150Y42550D01*
X24250D01*
X24300Y42600D01*
X24400Y42550D02*
X24500D01*
X24450D01*
Y42850D01*
X24400Y42800D01*
X22200D02*
X22150Y42850D01*
X22050D01*
X22000Y42800D01*
Y42600D01*
X22050Y42550D01*
X22150D01*
X22200Y42600D01*
X22500Y42550D02*
X22300D01*
X22500Y42750D01*
Y42800D01*
X22450Y42850D01*
X22350D01*
X22300Y42800D01*
X25600Y26850D02*
X25550Y26900D01*
X25450D01*
X25400Y26850D01*
Y26650D01*
X25450Y26600D01*
X25550D01*
X25600Y26650D01*
X25700Y26850D02*
X25750Y26900D01*
X25850D01*
X25900Y26850D01*
Y26800D01*
X25850Y26750D01*
X25800D01*
X25850D01*
X25900Y26700D01*
Y26650D01*
X25850Y26600D01*
X25750D01*
X25700Y26650D01*
X23650Y30750D02*
Y31050D01*
X23800D01*
X23850Y31000D01*
Y30900D01*
X23800Y30850D01*
X23650D01*
X23750D02*
X23850Y30750D01*
X24150D02*
X23950D01*
X24150Y30950D01*
Y31000D01*
X24100Y31050D01*
X24000D01*
X23950Y31000D01*
X25600Y26150D02*
X25550Y26200D01*
X25450D01*
X25400Y26150D01*
Y25950D01*
X25450Y25900D01*
X25550D01*
X25600Y25950D01*
X25900Y26200D02*
X25700D01*
Y26050D01*
X25800Y26100D01*
X25850D01*
X25900Y26050D01*
Y25950D01*
X25850Y25900D01*
X25750D01*
X25700Y25950D01*
X10050Y37250D02*
Y37550D01*
X10200D01*
X10250Y37500D01*
Y37400D01*
X10200Y37350D01*
X10050D01*
X10150D02*
X10250Y37250D01*
X10350Y37550D02*
X10550Y37250D01*
Y37550D02*
X10350Y37250D01*
X10050Y37000D02*
X10250D01*
X10150D01*
Y36700D01*
X10350Y37000D02*
X10550Y36700D01*
Y37000D02*
X10350Y36700D01*
X10250Y35900D02*
X10050D01*
Y35750D01*
X10150Y35800D01*
X10200D01*
X10250Y35750D01*
Y35650D01*
X10200Y35600D01*
X10100D01*
X10050Y35650D01*
X10350Y35900D02*
Y35700D01*
X10450Y35600D01*
X10550Y35700D01*
Y35900D01*
X10050Y36150D02*
Y36450D01*
X10150Y36350D01*
X10250Y36450D01*
Y36150D01*
X10550Y36400D02*
X10500Y36450D01*
X10400D01*
X10350Y36400D01*
Y36200D01*
X10400Y36150D01*
X10500D01*
X10550Y36200D01*
X18300Y34800D02*
X18250Y34850D01*
X18150D01*
X18100Y34800D01*
Y34600D01*
X18150Y34550D01*
X18250D01*
X18300Y34600D01*
Y34700D01*
X18200D01*
X18400Y34550D02*
Y34850D01*
X18600Y34550D01*
Y34850D01*
X18700D02*
Y34550D01*
X18850D01*
X18900Y34600D01*
Y34800D01*
X18850Y34850D01*
X18700D01*
X18050Y33550D02*
Y33850D01*
X18150Y33750D01*
X18250Y33850D01*
Y33550D01*
X18500Y33850D02*
X18400D01*
X18350Y33800D01*
Y33600D01*
X18400Y33550D01*
X18500D01*
X18550Y33600D01*
Y33800D01*
X18500Y33850D01*
X18850Y33800D02*
X18800Y33850D01*
X18700D01*
X18650Y33800D01*
Y33750D01*
X18700Y33700D01*
X18800D01*
X18850Y33650D01*
Y33600D01*
X18800Y33550D01*
X18700D01*
X18650Y33600D01*
X18950Y33850D02*
X19050D01*
X19000D01*
Y33550D01*
X18950D01*
X19050D01*
X18100Y32850D02*
Y32650D01*
X18200Y32550D01*
X18300Y32650D01*
Y32850D01*
X18600Y32800D02*
X18550Y32850D01*
X18450D01*
X18400Y32800D01*
Y32600D01*
X18450Y32550D01*
X18550D01*
X18600Y32600D01*
X18900Y32800D02*
X18850Y32850D01*
X18750D01*
X18700Y32800D01*
Y32600D01*
X18750Y32550D01*
X18850D01*
X18900Y32600D01*
X21400Y34550D02*
Y34850D01*
X21550D01*
X21600Y34800D01*
Y34700D01*
X21550Y34650D01*
X21400D01*
X21500D02*
X21600Y34550D01*
X21900Y34850D02*
X21700D01*
Y34550D01*
X21900D01*
X21700Y34700D02*
X21800D01*
X22200Y34800D02*
X22150Y34850D01*
X22050D01*
X22000Y34800D01*
Y34750D01*
X22050Y34700D01*
X22150D01*
X22200Y34650D01*
Y34600D01*
X22150Y34550D01*
X22050D01*
X22000Y34600D01*
X22500Y34850D02*
X22300D01*
Y34550D01*
X22500D01*
X22300Y34700D02*
X22400D01*
X22600Y34850D02*
X22800D01*
X22700D01*
Y34550D01*
X21600Y33750D02*
X21550Y33800D01*
X21450D01*
X21400Y33750D01*
Y33700D01*
X21450Y33650D01*
X21550D01*
X21600Y33600D01*
Y33550D01*
X21550Y33500D01*
X21450D01*
X21400Y33550D01*
X21900Y33750D02*
X21850Y33800D01*
X21750D01*
X21700Y33750D01*
Y33550D01*
X21750Y33500D01*
X21850D01*
X21900Y33550D01*
X22000Y33800D02*
Y33500D01*
Y33600D01*
X22200Y33800D01*
X22050Y33650D01*
X22200Y33500D01*
X21500Y32550D02*
Y32850D01*
X21600Y32750D01*
X21700Y32850D01*
Y32550D01*
X21800Y32850D02*
X21900D01*
X21850D01*
Y32550D01*
X21800D01*
X21900D01*
X22250Y32800D02*
X22200Y32850D01*
X22100D01*
X22050Y32800D01*
Y32750D01*
X22100Y32700D01*
X22200D01*
X22250Y32650D01*
Y32600D01*
X22200Y32550D01*
X22100D01*
X22050Y32600D01*
X22500Y32850D02*
X22400D01*
X22350Y32800D01*
Y32600D01*
X22400Y32550D01*
X22500D01*
X22550Y32600D01*
Y32800D01*
X22500Y32850D01*
X12850Y34200D02*
X12800Y34250D01*
X12700D01*
X12650Y34200D01*
Y34150D01*
X12700Y34100D01*
X12800D01*
X12850Y34050D01*
Y34000D01*
X12800Y33950D01*
X12700D01*
X12650Y34000D01*
X13150Y34200D02*
X13100Y34250D01*
X13000D01*
X12950Y34200D01*
Y34150D01*
X13000Y34100D01*
X13100D01*
X13150Y34050D01*
Y34000D01*
X13100Y33950D01*
X13000D01*
X12950Y34000D01*
X12850Y33200D02*
X12800Y33250D01*
X12700D01*
X12650Y33200D01*
Y33150D01*
X12700Y33100D01*
X12800D01*
X12850Y33050D01*
Y33000D01*
X12800Y32950D01*
X12700D01*
X12650Y33000D01*
X13150Y33200D02*
X13100Y33250D01*
X13000D01*
X12950Y33200D01*
Y33000D01*
X13000Y32950D01*
X13100D01*
X13150Y33000D01*
X13250Y33250D02*
Y32950D01*
Y33050D01*
X13450Y33250D01*
X13300Y33100D01*
X13450Y32950D01*
X12650Y31950D02*
Y32250D01*
X12750Y32150D01*
X12850Y32250D01*
Y31950D01*
X13100Y32250D02*
X13000D01*
X12950Y32200D01*
Y32000D01*
X13000Y31950D01*
X13100D01*
X13150Y32000D01*
Y32200D01*
X13100Y32250D01*
X13450Y32200D02*
X13400Y32250D01*
X13300D01*
X13250Y32200D01*
Y32150D01*
X13300Y32100D01*
X13400D01*
X13450Y32050D01*
Y32000D01*
X13400Y31950D01*
X13300D01*
X13250Y32000D01*
X13550Y32250D02*
X13650D01*
X13600D01*
Y31950D01*
X13550D01*
X13650D01*
X12650Y31000D02*
Y31300D01*
X12750Y31200D01*
X12850Y31300D01*
Y31000D01*
X12950Y31300D02*
X13050D01*
X13000D01*
Y31000D01*
X12950D01*
X13050D01*
X13400Y31250D02*
X13350Y31300D01*
X13250D01*
X13200Y31250D01*
Y31200D01*
X13250Y31150D01*
X13350D01*
X13400Y31100D01*
Y31050D01*
X13350Y31000D01*
X13250D01*
X13200Y31050D01*
X13650Y31300D02*
X13550D01*
X13500Y31250D01*
Y31050D01*
X13550Y31000D01*
X13650D01*
X13700Y31050D01*
Y31250D01*
X13650Y31300D01*
X11400Y29900D02*
X11450Y29950D01*
X11550D01*
X11600Y29900D01*
Y29700D01*
X11550Y29650D01*
X11450D01*
X11400Y29700D01*
Y29900D01*
X19950Y29350D02*
X20050D01*
X20000D01*
Y29650D01*
X19950Y29600D01*
X20200Y29400D02*
X20250Y29350D01*
X20350D01*
X20400Y29400D01*
Y29600D01*
X20350Y29650D01*
X20250D01*
X20200Y29600D01*
Y29550D01*
X20250Y29500D01*
X20400D01*
X11400Y25400D02*
X11450Y25350D01*
X11550D01*
X11600Y25400D01*
Y25600D01*
X11550Y25650D01*
X11450D01*
X11400Y25600D01*
Y25550D01*
X11450Y25500D01*
X11600D01*
X11150Y29600D02*
X11200Y29650D01*
X11300D01*
X11350Y29600D01*
Y29400D01*
X11300Y29350D01*
X11200D01*
X11150Y29400D01*
Y29600D01*
X26350Y34750D02*
Y34950D01*
X26450Y35050D01*
X26550Y34950D01*
Y34750D01*
Y34900D01*
X26350D01*
X26650Y35050D02*
X26850D01*
X26750D01*
Y34750D01*
X26950D02*
Y34950D01*
X27000D01*
X27050Y34900D01*
Y34750D01*
Y34900D01*
X27100Y34950D01*
X27150Y34900D01*
Y34750D01*
X27400D02*
X27300D01*
X27250Y34800D01*
Y34900D01*
X27300Y34950D01*
X27400D01*
X27450Y34900D01*
Y34850D01*
X27250D01*
X27650Y34650D02*
X27700D01*
X27750Y34700D01*
Y34950D01*
X27600D01*
X27550Y34900D01*
Y34800D01*
X27600Y34750D01*
X27750D01*
X27899Y34950D02*
X27999D01*
X28049Y34900D01*
Y34750D01*
X27899D01*
X27850Y34800D01*
X27899Y34850D01*
X28049D01*
X28349Y34750D02*
X28149D01*
X28349Y34950D01*
Y35000D01*
X28299Y35050D01*
X28199D01*
X28149Y35000D01*
X28649Y35050D02*
X28449D01*
Y34900D01*
X28549Y34950D01*
X28599D01*
X28649Y34900D01*
Y34800D01*
X28599Y34750D01*
X28499D01*
X28449Y34800D01*
X28949Y35050D02*
X28849Y35000D01*
X28749Y34900D01*
Y34800D01*
X28799Y34750D01*
X28899D01*
X28949Y34800D01*
Y34850D01*
X28899Y34900D01*
X28749D01*
X29049Y34750D02*
X29149D01*
X29099D01*
Y35050D01*
X29049Y35000D01*
X15450Y38350D02*
Y38550D01*
X15300D01*
Y38450D01*
Y38550D01*
X15150D01*
X15450Y38250D02*
Y38050D01*
Y38150D01*
X15150D01*
Y37750D02*
Y37950D01*
X15350Y37750D01*
X15400D01*
X15450Y37800D01*
Y37900D01*
X15400Y37950D01*
Y37650D02*
X15450Y37600D01*
Y37500D01*
X15400Y37450D01*
X15350D01*
X15300Y37500D01*
Y37550D01*
Y37500D01*
X15250Y37450D01*
X15200D01*
X15150Y37500D01*
Y37600D01*
X15200Y37650D01*
X15150Y37150D02*
Y37350D01*
X15350Y37150D01*
X15400D01*
X15450Y37200D01*
Y37300D01*
X15400Y37350D01*
X15150Y37050D02*
X15450D01*
Y36901D01*
X15400Y36851D01*
X15300D01*
X15250Y36901D01*
Y37050D01*
Y36951D02*
X15150Y36851D01*
X15450Y36751D02*
X15150D01*
Y36551D01*
X20000Y38750D02*
X20100D01*
X20050D01*
Y39050D01*
X20000Y39000D01*
X20450Y39050D02*
X20350Y39000D01*
X20250Y38900D01*
Y38800D01*
X20300Y38750D01*
X20400D01*
X20450Y38800D01*
Y38850D01*
X20400Y38900D01*
X20250D01*
X20550Y38750D02*
Y39050D01*
X20650Y38950D01*
X20750Y39050D01*
Y38750D01*
X20850Y39050D02*
Y38750D01*
Y38900D01*
X21050D01*
Y39050D01*
Y38750D01*
X21150Y38950D02*
X21350D01*
X21150Y38750D01*
X21350D01*
X21949Y39000D02*
X21899Y39050D01*
X21799D01*
X21749Y39000D01*
Y38800D01*
X21799Y38750D01*
X21899D01*
X21949Y38800D01*
X22049Y38950D02*
Y38750D01*
Y38850D01*
X22099Y38900D01*
X22149Y38950D01*
X22199D01*
X22349D02*
Y38800D01*
X22399Y38750D01*
X22549D01*
Y38700D01*
X22499Y38650D01*
X22449D01*
X22549Y38750D02*
Y38950D01*
X22649Y38750D02*
X22799D01*
X22849Y38800D01*
X22799Y38850D01*
X22699D01*
X22649Y38900D01*
X22699Y38950D01*
X22849D01*
X22999Y39000D02*
Y38950D01*
X22949D01*
X23049D01*
X22999D01*
Y38800D01*
X23049Y38750D01*
X23249Y38950D02*
X23349D01*
X23399Y38900D01*
Y38750D01*
X23249D01*
X23199Y38800D01*
X23249Y38850D01*
X23399D01*
X23499Y38750D02*
X23599D01*
X23549D01*
Y39050D01*
X23499D01*
X15400Y41050D02*
X15200D01*
Y40900D01*
X15300D01*
X15200D01*
Y40750D01*
X15500Y40950D02*
Y40800D01*
X15550Y40750D01*
X15700D01*
Y40950D01*
X15800Y40750D02*
X15950D01*
X16000Y40800D01*
X15950Y40850D01*
X15850D01*
X15800Y40900D01*
X15850Y40950D01*
X16000D01*
X16250Y40750D02*
X16150D01*
X16100Y40800D01*
Y40900D01*
X16150Y40950D01*
X16250D01*
X16300Y40900D01*
Y40850D01*
X16100D01*
X23400Y26950D02*
Y27250D01*
X23550D01*
X23600Y27200D01*
Y27100D01*
X23550Y27050D01*
X23400D01*
X23500D02*
X23600Y26950D01*
X23900Y27250D02*
X23700D01*
Y26950D01*
X23900D01*
X23700Y27100D02*
X23800D01*
X24200Y27200D02*
X24150Y27250D01*
X24050D01*
X24000Y27200D01*
Y27150D01*
X24050Y27100D01*
X24150D01*
X24200Y27050D01*
Y27000D01*
X24150Y26950D01*
X24050D01*
X24000Y27000D01*
X24500Y27250D02*
X24300D01*
Y26950D01*
X24500D01*
X24300Y27100D02*
X24400D01*
X24600Y27250D02*
X24800D01*
X24700D01*
Y26950D01*
X12050Y27700D02*
Y27450D01*
X12100Y27400D01*
X12200D01*
X12250Y27450D01*
Y27700D01*
X12350Y27400D02*
Y27600D01*
X12450Y27700D01*
X12550Y27600D01*
Y27400D01*
Y27550D01*
X12350D01*
X12650Y27400D02*
Y27700D01*
X12800D01*
X12850Y27650D01*
Y27550D01*
X12800Y27500D01*
X12650D01*
X12750D02*
X12850Y27400D01*
X12950Y27700D02*
X13150D01*
X13050D01*
Y27400D01*
X13749D02*
X13699Y27450D01*
X13649Y27400D01*
X13599D01*
X13550Y27450D01*
Y27500D01*
X13599Y27550D01*
X13550Y27600D01*
Y27650D01*
X13599Y27700D01*
X13649D01*
X13699Y27650D01*
Y27600D01*
X13649Y27550D01*
X13699Y27500D01*
Y27450D01*
X13749Y27550D02*
X13699Y27500D01*
X13599Y27550D02*
X13649D01*
X14349Y27650D02*
X14299Y27700D01*
X14199D01*
X14149Y27650D01*
Y27600D01*
X14199Y27550D01*
X14299D01*
X14349Y27500D01*
Y27450D01*
X14299Y27400D01*
X14199D01*
X14149Y27450D01*
X14449Y27400D02*
Y27700D01*
X14599D01*
X14649Y27650D01*
Y27550D01*
X14599Y27500D01*
X14449D01*
X14749Y27700D02*
X14849D01*
X14799D01*
Y27400D01*
X14749D01*
X14849D01*
X15499Y27650D02*
X15449Y27700D01*
X15349D01*
X15299Y27650D01*
Y27450D01*
X15349Y27400D01*
X15449D01*
X15499Y27450D01*
X15649Y27400D02*
X15749D01*
X15799Y27450D01*
Y27550D01*
X15749Y27600D01*
X15649D01*
X15599Y27550D01*
Y27450D01*
X15649Y27400D01*
X15899D02*
Y27600D01*
X16049D01*
X16099Y27550D01*
Y27400D01*
X16249Y27650D02*
Y27600D01*
X16199D01*
X16299D01*
X16249D01*
Y27450D01*
X16299Y27400D01*
X16449Y27600D02*
Y27400D01*
Y27500D01*
X16499Y27550D01*
X16549Y27600D01*
X16599D01*
X16798Y27400D02*
X16898D01*
X16948Y27450D01*
Y27550D01*
X16898Y27600D01*
X16798D01*
X16748Y27550D01*
Y27450D01*
X16798Y27400D01*
X17048D02*
X17148D01*
X17098D01*
Y27700D01*
X17048D01*
X17298Y27400D02*
X17398D01*
X17348D01*
Y27700D01*
X17298D01*
X17698Y27400D02*
X17598D01*
X17548Y27450D01*
Y27550D01*
X17598Y27600D01*
X17698D01*
X17748Y27550D01*
Y27500D01*
X17548D01*
X17848Y27600D02*
Y27400D01*
Y27500D01*
X17898Y27550D01*
X17948Y27600D01*
X17998D01*
D51*
X26647Y26038D02*
Y26070D01*
D52*
X9595Y41275D02*
X9832Y41157D01*
X9595Y38120D02*
X9832Y38240D01*
X9792D02*
Y41157D01*
X9635Y38440D02*
Y40999D01*
X9595Y41275D02*
X9635Y40999D01*
X9595Y38120D02*
X9635Y38440D01*
X11800Y40330D02*
Y40580D01*
Y38820D02*
Y39070D01*
X11020Y38240D02*
X11270D01*
X9832D02*
X10270D01*
X9832Y41157D02*
X10270D01*
X11020Y41160D02*
X11270D01*
D53*
X32850Y38450D02*
X32950D01*
X32900D01*
Y38750D01*
X32850Y38700D01*
X33100D02*
X33150Y38750D01*
X33250D01*
X33300Y38700D01*
Y38500D01*
X33250Y38450D01*
X33150D01*
X33100Y38500D01*
Y38700D01*
X33700Y38650D02*
X33900Y38450D01*
X33800Y38550D01*
X33900Y38650D01*
X33700Y38450D01*
X34499D02*
X34300D01*
X34499Y38650D01*
Y38700D01*
X34449Y38750D01*
X34350D01*
X34300Y38700D01*
X34599Y38750D02*
Y38450D01*
Y38550D01*
X34799Y38750D01*
X34649Y38600D01*
X34799Y38450D01*
X30800Y47300D02*
X30900D01*
X30850D01*
Y47600D01*
X30800Y47550D01*
X31050D02*
X31100Y47600D01*
X31200D01*
X31250Y47550D01*
Y47350D01*
X31200Y47300D01*
X31100D01*
X31050Y47350D01*
Y47550D01*
X31650Y47500D02*
X31850Y47300D01*
X31750Y47400D01*
X31850Y47500D01*
X31650Y47300D01*
X32449D02*
X32250D01*
X32449Y47500D01*
Y47550D01*
X32399Y47600D01*
X32300D01*
X32250Y47550D01*
X32549Y47600D02*
Y47300D01*
Y47400D01*
X32749Y47600D01*
X32599Y47450D01*
X32749Y47300D01*
D54*
X30500Y30100D02*
D03*
X34500Y30050D02*
D03*
X29500D02*
D03*
X33800D02*
D03*
X28700D02*
D03*
X33100D02*
D03*
X28000D02*
D03*
X32400D02*
D03*
X27350D02*
D03*
X31500Y30000D02*
D03*
D55*
X21223Y44930D02*
D03*
D56*
X31950Y46000D02*
D03*
Y46750D02*
D03*
Y45250D02*
D03*
Y44500D02*
D03*
Y43750D02*
D03*
Y43000D02*
D03*
Y42250D02*
D03*
Y41500D02*
D03*
Y40750D02*
D03*
Y40000D02*
D03*
X34300Y38100D02*
D03*
Y37400D02*
D03*
Y36700D02*
D03*
Y36000D02*
D03*
Y35300D02*
D03*
Y34600D02*
D03*
Y33900D02*
D03*
Y33200D02*
D03*
Y32500D02*
D03*
X34350Y31800D02*
D03*
M02*
