G04 Layer_Color=13813960*
%FSLAX24Y24*%
%MOIN*%
G70*
G01*
G75*
%ADD53C,0.0070*%
D53*
X32850Y30250D02*
X32750D01*
X32800D01*
Y30550D01*
X32850Y30500D01*
X32600D02*
X32550Y30550D01*
X32450D01*
X32400Y30500D01*
Y30300D01*
X32450Y30250D01*
X32550D01*
X32600Y30300D01*
Y30500D01*
X32000Y30450D02*
X31800Y30250D01*
X31900Y30350D01*
X31800Y30450D01*
X32000Y30250D01*
X31201Y30550D02*
X31400D01*
Y30400D01*
X31300Y30450D01*
X31251D01*
X31201Y30400D01*
Y30300D01*
X31251Y30250D01*
X31350D01*
X31400Y30300D01*
X31101Y30250D02*
X31001D01*
X31051D01*
Y30550D01*
X31101Y30500D01*
X30851D02*
X30801Y30550D01*
X30701D01*
X30651Y30500D01*
Y30300D01*
X30701Y30250D01*
X30801D01*
X30851Y30300D01*
Y30500D01*
X30551Y30250D02*
Y30550D01*
X30401D01*
X30351Y30500D01*
Y30400D01*
X30401Y30350D01*
X30551D01*
X30451D02*
X30351Y30250D01*
X36150Y39450D02*
X36050D01*
X36100D01*
Y39750D01*
X36150Y39700D01*
X35900D02*
X35850Y39750D01*
X35750D01*
X35700Y39700D01*
Y39500D01*
X35750Y39450D01*
X35850D01*
X35900Y39500D01*
Y39700D01*
X35300Y39650D02*
X35100Y39450D01*
X35200Y39550D01*
X35100Y39650D01*
X35300Y39450D01*
X34501Y39750D02*
X34700D01*
Y39600D01*
X34601Y39650D01*
X34551D01*
X34501Y39600D01*
Y39500D01*
X34551Y39450D01*
X34650D01*
X34700Y39500D01*
X34401Y39450D02*
X34301D01*
X34351D01*
Y39750D01*
X34401Y39700D01*
X34151D02*
X34101Y39750D01*
X34001D01*
X33951Y39700D01*
Y39500D01*
X34001Y39450D01*
X34101D01*
X34151Y39500D01*
Y39700D01*
X33851Y39450D02*
Y39750D01*
X33701D01*
X33651Y39700D01*
Y39600D01*
X33701Y39550D01*
X33851D01*
X33751D02*
X33651Y39450D01*
M02*
