G04 Layer_Color=20142*
%FSLAX24Y24*%
%MOIN*%
G70*
G01*
G75*
%ADD57O,0.0867X0.0218*%
%ADD58R,0.0415X0.0434*%
%ADD59R,0.0867X0.0631*%
%ADD60R,0.2245X0.0867*%
%ADD61O,0.0651X0.0297*%
%ADD62O,0.0297X0.0651*%
%ADD63R,0.0356X0.0415*%
%ADD64R,0.0480X0.0395*%
%ADD65R,0.0395X0.0480*%
%ADD66R,0.0480X0.0520*%
%ADD67R,0.0480X0.1281*%
%ADD68R,0.4277X0.3379*%
%ADD69R,0.0395X0.0395*%
%ADD70R,0.0552X0.1458*%
%ADD71R,0.0520X0.0480*%
%ADD72R,0.0434X0.0415*%
%ADD73R,0.0493X0.0474*%
%ADD74R,0.0571X0.0197*%
%ADD75R,0.0631X0.0710*%
%ADD76R,0.0828X0.0828*%
%ADD77R,0.0830X0.1420*%
%ADD78C,0.0830*%
%ADD79R,0.0830X0.0830*%
%ADD80P,0.0888X8X112.5*%
%ADD81C,0.0730*%
%ADD82R,0.0730X0.0730*%
%ADD83O,0.0880X0.0680*%
%ADD84C,0.1880*%
%ADD85C,0.0680*%
%ADD86O,0.0710X0.0580*%
%ADD87C,0.1458*%
%ADD88C,0.0320*%
D57*
X13913Y35987D02*
D03*
Y36243D02*
D03*
Y36498D02*
D03*
Y36754D02*
D03*
Y37010D02*
D03*
Y37266D02*
D03*
Y37522D02*
D03*
Y37778D02*
D03*
Y38034D02*
D03*
Y38290D02*
D03*
Y38546D02*
D03*
Y38802D02*
D03*
Y39057D02*
D03*
Y39313D02*
D03*
X16787D02*
D03*
Y39057D02*
D03*
Y38802D02*
D03*
Y38546D02*
D03*
Y38290D02*
D03*
Y38034D02*
D03*
Y37778D02*
D03*
Y37522D02*
D03*
Y37266D02*
D03*
Y37010D02*
D03*
Y36754D02*
D03*
Y36498D02*
D03*
Y36243D02*
D03*
Y35987D02*
D03*
D58*
X25594Y38900D02*
D03*
X26106D02*
D03*
X26906Y26750D02*
D03*
X26394D02*
D03*
D59*
X25922Y27664D02*
D03*
X22378D02*
D03*
X25922Y29436D02*
D03*
X22378D02*
D03*
D60*
X24220Y40250D02*
D03*
X20480D02*
D03*
D61*
X24708Y37212D02*
D03*
Y36897D02*
D03*
Y36582D02*
D03*
Y36267D02*
D03*
Y35952D02*
D03*
Y35637D02*
D03*
Y35322D02*
D03*
Y35007D02*
D03*
Y34693D02*
D03*
Y34378D02*
D03*
Y34063D02*
D03*
Y33748D02*
D03*
Y33433D02*
D03*
Y33118D02*
D03*
Y32803D02*
D03*
Y32488D02*
D03*
X30692D02*
D03*
Y32803D02*
D03*
Y33118D02*
D03*
Y33433D02*
D03*
Y33748D02*
D03*
Y34063D02*
D03*
Y34378D02*
D03*
Y34693D02*
D03*
Y35007D02*
D03*
Y35322D02*
D03*
Y35637D02*
D03*
Y35952D02*
D03*
Y36267D02*
D03*
Y36582D02*
D03*
Y36897D02*
D03*
Y37212D02*
D03*
D62*
X25338Y31858D02*
D03*
X25653D02*
D03*
X25968D02*
D03*
X26283D02*
D03*
X26598D02*
D03*
X26913D02*
D03*
X27228D02*
D03*
X27543D02*
D03*
X27857D02*
D03*
X28172D02*
D03*
X28487D02*
D03*
X28802D02*
D03*
X29117D02*
D03*
X29432D02*
D03*
X29747D02*
D03*
X30062D02*
D03*
Y37842D02*
D03*
X29747D02*
D03*
X29432D02*
D03*
X29117D02*
D03*
X28802D02*
D03*
X28487D02*
D03*
X28172D02*
D03*
X27857D02*
D03*
X27543D02*
D03*
X27228D02*
D03*
X26913D02*
D03*
X26598D02*
D03*
X26283D02*
D03*
X25968D02*
D03*
X25653D02*
D03*
X25338D02*
D03*
D63*
X10824Y37400D02*
D03*
X11276D02*
D03*
Y36300D02*
D03*
X10824D02*
D03*
X11276Y35750D02*
D03*
X10824D02*
D03*
Y36850D02*
D03*
X11276D02*
D03*
D64*
X31000Y27400D02*
D03*
Y26600D02*
D03*
X31900Y27000D02*
D03*
X34500Y28900D02*
D03*
Y28100D02*
D03*
X35400Y28500D02*
D03*
X30000Y28900D02*
D03*
Y28100D02*
D03*
X30900Y28500D02*
D03*
X34000Y27400D02*
D03*
Y26600D02*
D03*
X34900Y27000D02*
D03*
X29500Y27400D02*
D03*
Y26600D02*
D03*
X30400Y27000D02*
D03*
X33000Y28900D02*
D03*
Y28100D02*
D03*
X33900Y28500D02*
D03*
X28500Y28900D02*
D03*
Y28100D02*
D03*
X29400Y28500D02*
D03*
X32500Y27400D02*
D03*
Y26600D02*
D03*
X33400Y27000D02*
D03*
X28000Y27400D02*
D03*
Y26600D02*
D03*
X28900Y27000D02*
D03*
X31500Y28900D02*
D03*
Y28100D02*
D03*
X32400Y28500D02*
D03*
D65*
X37100Y34600D02*
D03*
X37900D02*
D03*
X37500Y35500D02*
D03*
X35600Y38100D02*
D03*
X36400D02*
D03*
X36000Y39000D02*
D03*
X34750Y43000D02*
D03*
X35550D02*
D03*
X35150Y43900D02*
D03*
X33350Y46750D02*
D03*
X34150D02*
D03*
X33750Y47650D02*
D03*
X35600Y33600D02*
D03*
X36400D02*
D03*
X36000Y34500D02*
D03*
X37100Y37600D02*
D03*
X37900D02*
D03*
X37500Y38500D02*
D03*
X33350Y42250D02*
D03*
X34150D02*
D03*
X33750Y43150D02*
D03*
X34750Y46000D02*
D03*
X35550D02*
D03*
X35150Y46900D02*
D03*
X37100Y33100D02*
D03*
X37900D02*
D03*
X37500Y34000D02*
D03*
X35600Y36600D02*
D03*
X36400D02*
D03*
X36000Y37500D02*
D03*
X34750Y41500D02*
D03*
X35550D02*
D03*
X35150Y42400D02*
D03*
X33350Y45250D02*
D03*
X34150D02*
D03*
X33750Y46150D02*
D03*
X35600Y32100D02*
D03*
X36400D02*
D03*
X36000Y33000D02*
D03*
X37100Y36100D02*
D03*
X37900D02*
D03*
X37500Y37000D02*
D03*
X33350Y40750D02*
D03*
X34150D02*
D03*
X33750Y41650D02*
D03*
X34750Y44500D02*
D03*
X35550D02*
D03*
X35150Y45400D02*
D03*
X37100Y31600D02*
D03*
X37900D02*
D03*
X37500Y32500D02*
D03*
X35600Y35100D02*
D03*
X36400D02*
D03*
X36000Y36000D02*
D03*
X34750Y40000D02*
D03*
X35550D02*
D03*
X35150Y40900D02*
D03*
X33350Y43750D02*
D03*
X34150D02*
D03*
X33750Y44650D02*
D03*
D66*
X30500Y29765D02*
D03*
Y30440D02*
D03*
X34500Y29715D02*
D03*
Y30390D02*
D03*
X29500Y29715D02*
D03*
Y30390D02*
D03*
X33800Y29715D02*
D03*
Y30390D02*
D03*
X28700Y29715D02*
D03*
Y30390D02*
D03*
X33100Y29715D02*
D03*
Y30390D02*
D03*
X28000Y29715D02*
D03*
Y30390D02*
D03*
X32400Y29715D02*
D03*
Y30390D02*
D03*
X27350Y29715D02*
D03*
Y30390D02*
D03*
X31500Y29665D02*
D03*
Y30340D02*
D03*
D67*
X16900Y42200D02*
D03*
X18900D02*
D03*
D68*
X17900Y46651D02*
D03*
D69*
X12465Y36300D02*
D03*
X11835D02*
D03*
X12465Y35750D02*
D03*
X11835D02*
D03*
X11835Y36850D02*
D03*
X12465D02*
D03*
X11835Y37400D02*
D03*
X12465D02*
D03*
D70*
X22050Y45201D02*
D03*
Y47799D02*
D03*
D71*
X32285Y46000D02*
D03*
X31610D02*
D03*
X32285Y46750D02*
D03*
X31610D02*
D03*
X32285Y45250D02*
D03*
X31610D02*
D03*
X32285Y44500D02*
D03*
X31610D02*
D03*
X32285Y43750D02*
D03*
X31610D02*
D03*
X32285Y43000D02*
D03*
X31610D02*
D03*
X32285Y42250D02*
D03*
X31610D02*
D03*
X32285Y41500D02*
D03*
X31610D02*
D03*
X32285Y40750D02*
D03*
X31610D02*
D03*
X32285Y40000D02*
D03*
X31610D02*
D03*
X34635Y38100D02*
D03*
X33960D02*
D03*
X34635Y37400D02*
D03*
X33960D02*
D03*
X34635Y36700D02*
D03*
X33960D02*
D03*
X34635Y36000D02*
D03*
X33960D02*
D03*
X34635Y35300D02*
D03*
X33960D02*
D03*
X34635Y34600D02*
D03*
X33960D02*
D03*
X34635Y33900D02*
D03*
X33960D02*
D03*
X34635Y33200D02*
D03*
X33960D02*
D03*
X34635Y32500D02*
D03*
X33960D02*
D03*
X34685Y31800D02*
D03*
X34010D02*
D03*
X26313Y26050D02*
D03*
X26987D02*
D03*
D72*
X22250Y42206D02*
D03*
Y41694D02*
D03*
X24250Y42206D02*
D03*
Y41694D02*
D03*
D73*
X24455Y30900D02*
D03*
X25045D02*
D03*
D74*
X11702Y39700D02*
D03*
Y39956D02*
D03*
Y39444D02*
D03*
Y39188D02*
D03*
Y40212D02*
D03*
D75*
X11613Y40960D02*
D03*
Y38440D02*
D03*
D76*
X10648Y40172D02*
D03*
Y39228D02*
D03*
D77*
X14670Y41600D02*
D03*
X13132D02*
D03*
D78*
X11250Y31100D02*
D03*
Y32100D02*
D03*
Y33100D02*
D03*
D79*
Y34100D02*
D03*
D80*
X19700Y34700D02*
D03*
X20700D02*
D03*
X19700Y33700D02*
D03*
X20700D02*
D03*
X19700Y32700D02*
D03*
X20700D02*
D03*
D81*
X42270Y36550D02*
D03*
X41270D02*
D03*
Y37550D02*
D03*
X42270D02*
D03*
Y35550D02*
D03*
X41270D02*
D03*
Y34550D02*
D03*
X42270D02*
D03*
X41270Y33550D02*
D03*
Y32550D02*
D03*
Y31550D02*
D03*
Y30550D02*
D03*
Y29550D02*
D03*
Y28550D02*
D03*
X42270Y33550D02*
D03*
Y32550D02*
D03*
Y31550D02*
D03*
Y30550D02*
D03*
Y29550D02*
D03*
D82*
Y28550D02*
D03*
D83*
X39470Y40500D02*
D03*
Y39500D02*
D03*
Y41500D02*
D03*
Y42500D02*
D03*
Y43500D02*
D03*
Y45500D02*
D03*
Y44500D02*
D03*
Y46500D02*
D03*
Y47500D02*
D03*
Y48500D02*
D03*
D84*
X11271Y44868D02*
D03*
X13200Y43706D02*
D03*
Y46069D02*
D03*
D85*
X24000Y31800D02*
D03*
D86*
X10648Y40999D02*
D03*
Y38401D02*
D03*
D87*
X13150Y26075D02*
D03*
X23780D02*
D03*
X27717Y47728D02*
D03*
X41496D02*
D03*
D88*
X34150Y40750D02*
D03*
X35550Y41500D02*
D03*
X34150Y42250D02*
D03*
X35550Y43000D02*
D03*
Y44500D02*
D03*
X34150Y43750D02*
D03*
Y45250D02*
D03*
X35550Y46000D02*
D03*
X34150Y46750D02*
D03*
X35550Y40000D02*
D03*
X36000Y39000D02*
D03*
X37500Y38500D02*
D03*
X36000Y37500D02*
D03*
X37500Y37000D02*
D03*
X36000Y36000D02*
D03*
X37500Y35500D02*
D03*
X36000Y34500D02*
D03*
Y33000D02*
D03*
X37500Y34000D02*
D03*
Y32500D02*
D03*
X38750Y31600D02*
D03*
Y33100D02*
D03*
Y34600D02*
D03*
Y36100D02*
D03*
Y37600D02*
D03*
X33900Y28500D02*
D03*
X35400D02*
D03*
X34900Y27000D02*
D03*
X33400D02*
D03*
X32400Y28500D02*
D03*
X31900Y27000D02*
D03*
X30900Y28500D02*
D03*
X30400Y27000D02*
D03*
X29400Y28500D02*
D03*
X28900Y27000D02*
D03*
X34000Y26000D02*
D03*
X32500D02*
D03*
X28000D02*
D03*
X29500D02*
D03*
X31000D02*
D03*
X26000Y36500D02*
D03*
X26913Y27663D02*
D03*
X22800Y37930D02*
D03*
X22400Y33200D02*
D03*
X22900Y31050D02*
D03*
X20900Y31250D02*
D03*
X22900Y34050D02*
D03*
X18250Y37010D02*
D03*
X23750Y38800D02*
D03*
X24150Y38100D02*
D03*
X28400Y36950D02*
D03*
X18228Y37522D02*
D03*
X11800Y35200D02*
D03*
X17500Y36000D02*
D03*
X17150Y34850D02*
D03*
X13000Y36300D02*
D03*
X29550Y36750D02*
D03*
X27100Y33000D02*
D03*
X23500Y36250D02*
D03*
M02*
