G04 Layer_Color=8150272*
%FSLAX24Y24*%
%MOIN*%
G70*
G01*
G75*
%ADD63R,0.0356X0.0415*%
%ADD78C,0.0830*%
%ADD79R,0.0830X0.0830*%
%ADD80P,0.0888X8X112.5*%
%ADD81C,0.0730*%
%ADD82R,0.0730X0.0730*%
%ADD83O,0.0880X0.0680*%
%ADD84C,0.1880*%
%ADD85C,0.0680*%
%ADD86O,0.0710X0.0580*%
%ADD87C,0.1458*%
%ADD88C,0.0320*%
%ADD89R,0.0415X0.0356*%
D63*
X34774Y39000D02*
D03*
X35226D02*
D03*
X34774Y38500D02*
D03*
X35226D02*
D03*
X34774Y37500D02*
D03*
X35226D02*
D03*
X34774Y37000D02*
D03*
X35226D02*
D03*
X34774Y36000D02*
D03*
X35226D02*
D03*
X34774Y35500D02*
D03*
X35226D02*
D03*
X34774Y34500D02*
D03*
X35226D02*
D03*
X34774Y34000D02*
D03*
X35226D02*
D03*
X34774Y33000D02*
D03*
X35226D02*
D03*
X34774Y32500D02*
D03*
X35226D02*
D03*
D78*
X11250Y31100D02*
D03*
Y32100D02*
D03*
Y33100D02*
D03*
D79*
Y34100D02*
D03*
D80*
X19700Y34700D02*
D03*
X20700D02*
D03*
X19700Y33700D02*
D03*
X20700D02*
D03*
X19700Y32700D02*
D03*
X20700D02*
D03*
D81*
X42270Y36550D02*
D03*
X41270D02*
D03*
Y37550D02*
D03*
X42270D02*
D03*
Y35550D02*
D03*
X41270D02*
D03*
Y34550D02*
D03*
X42270D02*
D03*
X41270Y33550D02*
D03*
Y32550D02*
D03*
Y31550D02*
D03*
Y30550D02*
D03*
Y29550D02*
D03*
Y28550D02*
D03*
X42270Y33550D02*
D03*
Y32550D02*
D03*
Y31550D02*
D03*
Y30550D02*
D03*
Y29550D02*
D03*
D82*
Y28550D02*
D03*
D83*
X39470Y40500D02*
D03*
Y39500D02*
D03*
Y41500D02*
D03*
Y42500D02*
D03*
Y43500D02*
D03*
Y45500D02*
D03*
Y44500D02*
D03*
Y46500D02*
D03*
Y47500D02*
D03*
Y48500D02*
D03*
D84*
X11271Y44868D02*
D03*
X13200Y43706D02*
D03*
Y46069D02*
D03*
D85*
X24000Y31800D02*
D03*
D86*
X10648Y40999D02*
D03*
Y38401D02*
D03*
D87*
X13150Y26075D02*
D03*
X23780D02*
D03*
X27717Y47728D02*
D03*
X41496D02*
D03*
D88*
X34150Y40750D02*
D03*
X35550Y41500D02*
D03*
X34150Y42250D02*
D03*
X35550Y43000D02*
D03*
Y44500D02*
D03*
X34150Y43750D02*
D03*
Y45250D02*
D03*
X35550Y46000D02*
D03*
X34150Y46750D02*
D03*
X35550Y40000D02*
D03*
X36000Y39000D02*
D03*
X37500Y38500D02*
D03*
X36000Y37500D02*
D03*
X37500Y37000D02*
D03*
X36000Y36000D02*
D03*
X37500Y35500D02*
D03*
X36000Y34500D02*
D03*
Y33000D02*
D03*
X37500Y34000D02*
D03*
Y32500D02*
D03*
X38750Y31600D02*
D03*
Y33100D02*
D03*
Y34600D02*
D03*
Y36100D02*
D03*
Y37600D02*
D03*
X33900Y28500D02*
D03*
X35400D02*
D03*
X34900Y27000D02*
D03*
X33400D02*
D03*
X32400Y28500D02*
D03*
X31900Y27000D02*
D03*
X30900Y28500D02*
D03*
X30400Y27000D02*
D03*
X29400Y28500D02*
D03*
X28900Y27000D02*
D03*
X34000Y26000D02*
D03*
X32500D02*
D03*
X28000D02*
D03*
X29500D02*
D03*
X31000D02*
D03*
X26000Y36500D02*
D03*
X26913Y27663D02*
D03*
X22800Y37930D02*
D03*
X22400Y33200D02*
D03*
X22900Y31050D02*
D03*
X20900Y31250D02*
D03*
X22900Y34050D02*
D03*
X18250Y37010D02*
D03*
X23750Y38800D02*
D03*
X24150Y38100D02*
D03*
X28400Y36950D02*
D03*
X18228Y37522D02*
D03*
X11800Y35200D02*
D03*
X17500Y36000D02*
D03*
X17150Y34850D02*
D03*
X13000Y36300D02*
D03*
X29550Y36750D02*
D03*
X27100Y33000D02*
D03*
X23500Y36250D02*
D03*
D89*
X35400Y29726D02*
D03*
Y29274D02*
D03*
X34900Y29726D02*
D03*
Y29274D02*
D03*
X33900Y29726D02*
D03*
Y29274D02*
D03*
X33400Y29726D02*
D03*
Y29274D02*
D03*
X32400Y29726D02*
D03*
Y29274D02*
D03*
X31900Y29726D02*
D03*
Y29274D02*
D03*
X30900Y29726D02*
D03*
Y29274D02*
D03*
X30400Y29726D02*
D03*
Y29274D02*
D03*
X29400Y29726D02*
D03*
Y29274D02*
D03*
X28900Y29726D02*
D03*
Y29274D02*
D03*
M02*
