G04 Layer_Physical_Order=2*
G04 Layer_Color=11436288*
%FSLAX24Y24*%
%MOIN*%
G70*
G01*
G75*
%ADD16R,0.0276X0.0335*%
%ADD31C,0.0200*%
%ADD34C,0.0750*%
%ADD35R,0.0750X0.0750*%
%ADD36P,0.0801X8X112.5*%
%ADD37C,0.0650*%
%ADD38R,0.0650X0.0650*%
%ADD39O,0.0800X0.0600*%
%ADD40C,0.1800*%
%ADD41C,0.0600*%
%ADD42O,0.0630X0.0500*%
%ADD43C,0.1378*%
%ADD44C,0.0240*%
%ADD45R,0.0335X0.0276*%
G36*
X42847Y47937D02*
Y26563D01*
X40937Y24653D01*
X12063D01*
X10153Y26563D01*
Y47937D01*
X11563Y49347D01*
X41437D01*
X42847Y47937D01*
D02*
G37*
%LPC*%
G36*
X19915Y34130D02*
X19485D01*
X19270Y33915D01*
Y33904D01*
X19100D01*
X19022Y33888D01*
X18956Y33844D01*
X18506Y33394D01*
X18462Y33328D01*
X18446Y33250D01*
Y32200D01*
X18462Y32122D01*
X18506Y32056D01*
X18806Y31756D01*
X18872Y31712D01*
X18950Y31696D01*
X21100D01*
X21178Y31712D01*
X21244Y31756D01*
X22544Y33056D01*
X22588Y33122D01*
X22604Y33200D01*
X22588Y33278D01*
X22544Y33344D01*
X22478Y33388D01*
X22400Y33404D01*
X22322Y33388D01*
X22256Y33344D01*
X21016Y32104D01*
X19034D01*
X18854Y32284D01*
Y33166D01*
X19184Y33496D01*
X19270D01*
Y33485D01*
X19485Y33270D01*
X19915D01*
X20130Y33485D01*
Y33915D01*
X19915Y34130D01*
D02*
G37*
G36*
X23500Y36454D02*
X23422Y36438D01*
X23356Y36394D01*
X23312Y36328D01*
X23296Y36250D01*
X23312Y36172D01*
X23356Y36106D01*
X26606Y32856D01*
X26672Y32812D01*
X26750Y32796D01*
X27100D01*
X27178Y32812D01*
X27244Y32856D01*
X27288Y32922D01*
X27304Y33000D01*
X27288Y33078D01*
X27244Y33144D01*
X27178Y33188D01*
X27100Y33204D01*
X26834D01*
X23644Y36394D01*
X23578Y36438D01*
X23500Y36454D01*
D02*
G37*
G36*
X20915Y33130D02*
X20485D01*
X20270Y32915D01*
Y32485D01*
X20485Y32270D01*
X20915D01*
X21130Y32485D01*
Y32915D01*
X20915Y33130D01*
D02*
G37*
G36*
Y34130D02*
X20485D01*
X20270Y33915D01*
Y33485D01*
X20485Y33270D01*
X20915D01*
X21130Y33485D01*
Y33915D01*
X20915Y34130D01*
D02*
G37*
G36*
X15500Y36504D02*
X13000D01*
X12922Y36488D01*
X12856Y36444D01*
X12812Y36378D01*
X12796Y36300D01*
X12812Y36222D01*
X12856Y36156D01*
X12922Y36112D01*
X13000Y36096D01*
X15416D01*
X16806Y34706D01*
X16872Y34662D01*
X16950Y34646D01*
X16950Y34646D01*
X17150D01*
X17228Y34662D01*
X17294Y34706D01*
X17338Y34772D01*
X17354Y34850D01*
X17338Y34928D01*
X17294Y34994D01*
X17228Y35038D01*
X17150Y35054D01*
X17034D01*
X15644Y36444D01*
X15578Y36488D01*
X15500Y36504D01*
D02*
G37*
G36*
X21500Y35654D02*
X19200D01*
X19122Y35638D01*
X19056Y35594D01*
X16766Y33304D01*
X11636D01*
X11630Y33319D01*
X11560Y33410D01*
X11469Y33480D01*
X11364Y33524D01*
X11250Y33539D01*
X11136Y33524D01*
X11031Y33480D01*
X10940Y33410D01*
X10870Y33319D01*
X10826Y33214D01*
X10811Y33100D01*
X10826Y32986D01*
X10870Y32881D01*
X10940Y32790D01*
X11031Y32720D01*
X11136Y32676D01*
X11250Y32661D01*
X11364Y32676D01*
X11469Y32720D01*
X11560Y32790D01*
X11630Y32881D01*
X11636Y32896D01*
X16850D01*
X16928Y32912D01*
X16994Y32956D01*
X19284Y35246D01*
X21416D01*
X22756Y33906D01*
X22822Y33862D01*
X22900Y33846D01*
X22978Y33862D01*
X23044Y33906D01*
X23088Y33972D01*
X23104Y34050D01*
X23088Y34128D01*
X23044Y34194D01*
X21644Y35594D01*
X21578Y35638D01*
X21500Y35654D01*
D02*
G37*
G36*
X11685Y34535D02*
X10815D01*
Y33665D01*
X11685D01*
Y34535D01*
D02*
G37*
G36*
X19915Y33130D02*
X19485D01*
X19270Y32915D01*
Y32485D01*
X19485Y32270D01*
X19915D01*
X20130Y32485D01*
Y32915D01*
X19915Y33130D01*
D02*
G37*
G36*
X34750Y39602D02*
X34250D01*
X34211Y39594D01*
X34178Y39572D01*
X33928Y39322D01*
X33906Y39289D01*
X33898Y39250D01*
Y37292D01*
X33708Y37102D01*
X29500D01*
X29487Y37099D01*
X29475Y37099D01*
X29468Y37096D01*
X29461Y37094D01*
X29450Y37087D01*
X29439Y37082D01*
X29239Y36932D01*
X29234Y36926D01*
X29228Y36922D01*
X29221Y36911D01*
X29212Y36902D01*
X29210Y36895D01*
X29206Y36889D01*
X29203Y36876D01*
X29199Y36864D01*
X29199Y36857D01*
X29198Y36850D01*
Y36650D01*
X29199Y36643D01*
X29199Y36636D01*
X29203Y36624D01*
X29206Y36611D01*
X29210Y36605D01*
X29212Y36598D01*
X29221Y36589D01*
X29228Y36578D01*
X29234Y36574D01*
X29239Y36568D01*
X29439Y36418D01*
X29450Y36413D01*
X29461Y36406D01*
X29468Y36404D01*
X29475Y36401D01*
X29487Y36401D01*
X29500Y36398D01*
X33708D01*
X33898Y36208D01*
Y30792D01*
X33708Y30602D01*
X24792D01*
X24602Y30792D01*
Y32000D01*
X24594Y32039D01*
X24572Y32072D01*
X24322Y32322D01*
X24289Y32344D01*
X24250Y32352D01*
X23750D01*
X23711Y32344D01*
X23678Y32322D01*
X23428Y32072D01*
X23406Y32039D01*
X23398Y32000D01*
Y30250D01*
X23406Y30211D01*
X23428Y30178D01*
X23928Y29678D01*
X24178Y29428D01*
X24211Y29406D01*
X24250Y29398D01*
X28633D01*
Y29036D01*
X28696D01*
Y27000D01*
X28712Y26922D01*
X28756Y26856D01*
X28822Y26812D01*
X28900Y26796D01*
X28978Y26812D01*
X29044Y26856D01*
X29088Y26922D01*
X29104Y27000D01*
Y29036D01*
X29196D01*
Y28500D01*
X29212Y28422D01*
X29256Y28356D01*
X29322Y28312D01*
X29400Y28296D01*
X29478Y28312D01*
X29544Y28356D01*
X29588Y28422D01*
X29604Y28500D01*
Y29036D01*
X29667D01*
Y29398D01*
X30133D01*
Y29036D01*
X30196D01*
Y27000D01*
X30212Y26922D01*
X30256Y26856D01*
X30322Y26812D01*
X30400Y26796D01*
X30478Y26812D01*
X30544Y26856D01*
X30588Y26922D01*
X30604Y27000D01*
Y29036D01*
X30696D01*
Y28500D01*
X30712Y28422D01*
X30756Y28356D01*
X30756Y28356D01*
X30822Y28312D01*
X30900Y28296D01*
X30978Y28312D01*
X31044Y28356D01*
X31088Y28422D01*
X31104Y28500D01*
X31104Y28500D01*
Y29036D01*
X31167D01*
Y29398D01*
X31633D01*
Y29036D01*
X31696D01*
Y27000D01*
X31712Y26922D01*
X31756Y26856D01*
X31822Y26812D01*
X31900Y26796D01*
X31978Y26812D01*
X32044Y26856D01*
X32088Y26922D01*
X32104Y27000D01*
Y29036D01*
X32196D01*
Y28500D01*
X32212Y28422D01*
X32256Y28356D01*
X32322Y28312D01*
X32400Y28296D01*
X32478Y28312D01*
X32544Y28356D01*
X32588Y28422D01*
X32604Y28500D01*
Y29036D01*
X32667D01*
Y29398D01*
X33133D01*
Y29036D01*
X33196D01*
Y27000D01*
X33212Y26922D01*
X33256Y26856D01*
X33322Y26812D01*
X33400Y26796D01*
X33478Y26812D01*
X33544Y26856D01*
X33588Y26922D01*
X33604Y27000D01*
Y29036D01*
X33696D01*
Y28500D01*
X33712Y28422D01*
X33756Y28356D01*
X33756Y28356D01*
X33822Y28312D01*
X33900Y28296D01*
X33978Y28312D01*
X34044Y28356D01*
X34088Y28422D01*
X34104Y28500D01*
X34104Y28500D01*
Y29036D01*
X34167D01*
Y29398D01*
X34633D01*
Y29036D01*
X34696D01*
Y27000D01*
X34712Y26922D01*
X34756Y26856D01*
X34756Y26856D01*
X34822Y26812D01*
X34900Y26796D01*
X34978Y26812D01*
X35044Y26856D01*
X35088Y26922D01*
X35104Y27000D01*
X35104Y27000D01*
Y29036D01*
X35196D01*
Y28500D01*
X35212Y28422D01*
X35256Y28356D01*
X35256Y28356D01*
X35322Y28312D01*
X35400Y28296D01*
X35478Y28312D01*
X35544Y28356D01*
X35588Y28422D01*
X35604Y28500D01*
X35604Y28500D01*
Y29036D01*
X35667D01*
Y29398D01*
X35750D01*
X35789Y29406D01*
X35822Y29428D01*
X36072Y29678D01*
X36094Y29711D01*
X36102Y29750D01*
Y30250D01*
X36094Y30289D01*
X36072Y30322D01*
X35822Y30572D01*
X35789Y30594D01*
X35750Y30602D01*
X35292D01*
X35102Y30792D01*
Y32233D01*
X35464D01*
Y32296D01*
X37500D01*
X37578Y32312D01*
X37644Y32356D01*
X37688Y32422D01*
X37704Y32500D01*
X37688Y32578D01*
X37644Y32644D01*
X37578Y32688D01*
X37500Y32704D01*
X35464D01*
Y32733D01*
Y32796D01*
X36000D01*
X36078Y32812D01*
X36144Y32856D01*
X36188Y32922D01*
X36204Y33000D01*
X36188Y33078D01*
X36144Y33144D01*
X36078Y33188D01*
X36000Y33204D01*
X35464D01*
Y33267D01*
X35102D01*
Y33733D01*
X35464D01*
Y33796D01*
X37500D01*
X37578Y33812D01*
X37644Y33856D01*
X37688Y33922D01*
X37704Y34000D01*
X37688Y34078D01*
X37644Y34144D01*
X37578Y34188D01*
X37500Y34204D01*
X35464D01*
Y34233D01*
Y34296D01*
X36000D01*
X36078Y34312D01*
X36144Y34356D01*
X36188Y34422D01*
X36204Y34500D01*
X36188Y34578D01*
X36144Y34644D01*
X36078Y34688D01*
X36000Y34704D01*
X35464D01*
Y34767D01*
X35102D01*
Y35233D01*
X35464D01*
Y35296D01*
X37500D01*
X37578Y35312D01*
X37644Y35356D01*
X37688Y35422D01*
X37704Y35500D01*
X37688Y35578D01*
X37644Y35644D01*
X37578Y35688D01*
X37500Y35704D01*
X35464D01*
Y35733D01*
Y35796D01*
X36000D01*
X36078Y35812D01*
X36144Y35856D01*
X36188Y35922D01*
X36204Y36000D01*
X36188Y36078D01*
X36144Y36144D01*
X36078Y36188D01*
X36000Y36204D01*
X35464D01*
Y36267D01*
X35102D01*
Y36733D01*
X35464D01*
Y36796D01*
X37500D01*
X37578Y36812D01*
X37644Y36856D01*
X37688Y36922D01*
X37704Y37000D01*
X37688Y37078D01*
X37644Y37144D01*
X37578Y37188D01*
X37500Y37204D01*
X35464D01*
Y37233D01*
Y37296D01*
X36000D01*
X36078Y37312D01*
X36144Y37356D01*
X36188Y37422D01*
X36204Y37500D01*
X36188Y37578D01*
X36144Y37644D01*
X36078Y37688D01*
X36000Y37704D01*
X35464D01*
Y37767D01*
X35102D01*
Y38233D01*
X35464D01*
Y38296D01*
X37500D01*
X37578Y38312D01*
X37644Y38356D01*
X37688Y38422D01*
X37704Y38500D01*
X37688Y38578D01*
X37644Y38644D01*
X37578Y38688D01*
X37500Y38704D01*
X35464D01*
Y38733D01*
Y38796D01*
X36000D01*
X36078Y38812D01*
X36144Y38856D01*
X36188Y38922D01*
X36204Y39000D01*
X36188Y39078D01*
X36144Y39144D01*
X36078Y39188D01*
X36000Y39204D01*
X35464D01*
Y39267D01*
X35089D01*
X35083Y39300D01*
X35061Y39334D01*
X34822Y39572D01*
X34789Y39594D01*
X34750Y39602D01*
D02*
G37*
G36*
X23780Y26827D02*
X23633Y26813D01*
X23492Y26770D01*
X23361Y26701D01*
X23247Y26607D01*
X23154Y26493D01*
X23084Y26363D01*
X23041Y26222D01*
X23027Y26075D01*
X23041Y25928D01*
X23084Y25787D01*
X23154Y25657D01*
X23247Y25543D01*
X23361Y25449D01*
X23492Y25379D01*
X23633Y25337D01*
X23780Y25322D01*
X23926Y25337D01*
X24068Y25379D01*
X24198Y25449D01*
X24312Y25543D01*
X24405Y25657D01*
X24475Y25787D01*
X24518Y25928D01*
X24532Y26075D01*
X24518Y26222D01*
X24475Y26363D01*
X24405Y26493D01*
X24312Y26607D01*
X24198Y26701D01*
X24068Y26770D01*
X23926Y26813D01*
X23780Y26827D01*
D02*
G37*
G36*
X13150D02*
X13003Y26813D01*
X12862Y26770D01*
X12731Y26701D01*
X12617Y26607D01*
X12524Y26493D01*
X12454Y26363D01*
X12411Y26222D01*
X12397Y26075D01*
X12411Y25928D01*
X12454Y25787D01*
X12524Y25657D01*
X12617Y25543D01*
X12731Y25449D01*
X12862Y25379D01*
X13003Y25337D01*
X13150Y25322D01*
X13296Y25337D01*
X13438Y25379D01*
X13568Y25449D01*
X13682Y25543D01*
X13775Y25657D01*
X13845Y25787D01*
X13888Y25928D01*
X13902Y26075D01*
X13888Y26222D01*
X13845Y26363D01*
X13775Y26493D01*
X13682Y26607D01*
X13568Y26701D01*
X13438Y26770D01*
X13296Y26813D01*
X13150Y26827D01*
D02*
G37*
G36*
X11250Y31539D02*
X11136Y31524D01*
X11031Y31480D01*
X10940Y31410D01*
X10870Y31319D01*
X10826Y31214D01*
X10811Y31100D01*
X10826Y30986D01*
X10870Y30881D01*
X10940Y30790D01*
X11031Y30720D01*
X11136Y30676D01*
X11250Y30661D01*
X11364Y30676D01*
X11469Y30720D01*
X11560Y30790D01*
X11630Y30881D01*
X11674Y30986D01*
X11682Y31046D01*
X20900D01*
X20978Y31062D01*
X21044Y31106D01*
X21088Y31172D01*
X21104Y31250D01*
X21088Y31328D01*
X21044Y31394D01*
X20978Y31438D01*
X20900Y31454D01*
X11503D01*
X11469Y31480D01*
X11364Y31524D01*
X11250Y31539D01*
D02*
G37*
G36*
X42270Y32938D02*
X42169Y32925D01*
X42076Y32886D01*
X41995Y32825D01*
X41934Y32744D01*
X41895Y32650D01*
X41882Y32550D01*
X41893Y32462D01*
X41686Y32254D01*
X41591D01*
X41566Y32304D01*
X41606Y32356D01*
X41645Y32450D01*
X41658Y32550D01*
X41645Y32650D01*
X41606Y32744D01*
X41545Y32825D01*
X41464Y32886D01*
X41371Y32925D01*
X41270Y32938D01*
X41169Y32925D01*
X41076Y32886D01*
X40995Y32825D01*
X40934Y32744D01*
X40895Y32650D01*
X40882Y32550D01*
X40895Y32450D01*
X40934Y32356D01*
X40983Y32292D01*
X40973Y32244D01*
X40966Y32235D01*
X40906Y32194D01*
X34916Y26204D01*
X34000D01*
X33922Y26188D01*
X33856Y26144D01*
X33835Y26112D01*
X33785Y26108D01*
X33748Y26144D01*
X33682Y26188D01*
X33604Y26204D01*
X32500D01*
X32422Y26188D01*
X32356Y26144D01*
X32335Y26112D01*
X32285Y26108D01*
X32248Y26144D01*
X32182Y26188D01*
X32104Y26204D01*
X31000D01*
X30922Y26188D01*
X30856Y26144D01*
X30835Y26112D01*
X30785Y26108D01*
X30748Y26144D01*
X30682Y26188D01*
X30604Y26204D01*
X29500D01*
X29422Y26188D01*
X29356Y26144D01*
X29335Y26112D01*
X29285Y26108D01*
X29248Y26144D01*
X29182Y26188D01*
X29104Y26204D01*
X28000D01*
X27922Y26188D01*
X27856Y26144D01*
X27812Y26078D01*
X27796Y26000D01*
X27812Y25922D01*
X27856Y25856D01*
X27922Y25812D01*
X28000Y25796D01*
X29020D01*
X30020Y24796D01*
X30086Y24752D01*
X30164Y24736D01*
X38660D01*
X38738Y24752D01*
X38804Y24796D01*
X42173Y28165D01*
X42655D01*
Y28935D01*
X42009D01*
X41990Y28981D01*
X42182Y29173D01*
X42270Y29162D01*
X42371Y29175D01*
X42464Y29214D01*
X42545Y29275D01*
X42606Y29356D01*
X42645Y29450D01*
X42658Y29550D01*
X42645Y29650D01*
X42606Y29744D01*
X42545Y29825D01*
X42464Y29886D01*
X42371Y29925D01*
X42270Y29938D01*
X42169Y29925D01*
X42076Y29886D01*
X41995Y29825D01*
X41934Y29744D01*
X41895Y29650D01*
X41882Y29550D01*
X41893Y29462D01*
X41686Y29254D01*
X41591D01*
X41566Y29304D01*
X41606Y29356D01*
X41645Y29450D01*
X41658Y29550D01*
X41645Y29650D01*
X41606Y29744D01*
X41566Y29796D01*
X41591Y29846D01*
X41770D01*
X41848Y29862D01*
X41914Y29906D01*
X42182Y30173D01*
X42270Y30162D01*
X42371Y30175D01*
X42464Y30214D01*
X42545Y30275D01*
X42606Y30356D01*
X42645Y30450D01*
X42658Y30550D01*
X42645Y30650D01*
X42606Y30744D01*
X42545Y30825D01*
X42464Y30886D01*
X42371Y30925D01*
X42270Y30938D01*
X42169Y30925D01*
X42076Y30886D01*
X41995Y30825D01*
X41934Y30744D01*
X41895Y30650D01*
X41882Y30550D01*
X41893Y30462D01*
X41686Y30254D01*
X41591D01*
X41566Y30304D01*
X41606Y30356D01*
X41645Y30450D01*
X41658Y30550D01*
X41645Y30650D01*
X41606Y30744D01*
X41566Y30796D01*
X41591Y30846D01*
X41770D01*
X41848Y30862D01*
X41914Y30906D01*
X42182Y31173D01*
X42270Y31162D01*
X42371Y31175D01*
X42464Y31214D01*
X42545Y31275D01*
X42606Y31356D01*
X42645Y31449D01*
X42658Y31550D01*
X42645Y31651D01*
X42606Y31744D01*
X42545Y31825D01*
X42464Y31886D01*
X42371Y31925D01*
X42270Y31938D01*
X42169Y31925D01*
X42076Y31886D01*
X41995Y31825D01*
X41934Y31744D01*
X41895Y31651D01*
X41882Y31550D01*
X41893Y31462D01*
X41686Y31254D01*
X41591D01*
X41566Y31304D01*
X41606Y31356D01*
X41645Y31449D01*
X41658Y31550D01*
X41645Y31651D01*
X41606Y31744D01*
X41566Y31796D01*
X41591Y31846D01*
X41770D01*
X41848Y31862D01*
X41914Y31906D01*
X42182Y32173D01*
X42270Y32162D01*
X42371Y32175D01*
X42464Y32214D01*
X42545Y32275D01*
X42606Y32356D01*
X42645Y32450D01*
X42658Y32550D01*
X42645Y32650D01*
X42606Y32744D01*
X42545Y32825D01*
X42464Y32886D01*
X42371Y32925D01*
X42270Y32938D01*
D02*
G37*
G36*
X11250Y32539D02*
X11136Y32524D01*
X11031Y32480D01*
X10940Y32410D01*
X10870Y32319D01*
X10826Y32214D01*
X10811Y32100D01*
X10826Y31986D01*
X10870Y31881D01*
X10940Y31790D01*
X11031Y31720D01*
X11136Y31676D01*
X11250Y31661D01*
X11364Y31676D01*
X11469Y31720D01*
X11560Y31790D01*
X11630Y31881D01*
X11674Y31986D01*
X11689Y32100D01*
X11674Y32214D01*
X11630Y32319D01*
X11560Y32410D01*
X11469Y32480D01*
X11364Y32524D01*
X11250Y32539D01*
D02*
G37*
G36*
X20915Y35130D02*
X20485D01*
X20270Y34915D01*
Y34485D01*
X20485Y34270D01*
X20915D01*
X21130Y34485D01*
Y34496D01*
X21516D01*
X22696Y33316D01*
Y31050D01*
X22712Y30972D01*
X22756Y30906D01*
X22822Y30862D01*
X22900Y30846D01*
X22978Y30862D01*
X23044Y30906D01*
X23088Y30972D01*
X23104Y31050D01*
Y33400D01*
X23104Y33400D01*
X23088Y33478D01*
X23044Y33544D01*
X21744Y34844D01*
X21678Y34888D01*
X21600Y34904D01*
X21130D01*
Y34915D01*
X20915Y35130D01*
D02*
G37*
G36*
X39570Y45863D02*
X39370D01*
X39276Y45851D01*
X39188Y45814D01*
X39113Y45757D01*
X39056Y45682D01*
X39019Y45594D01*
X39007Y45500D01*
X39019Y45406D01*
X39056Y45318D01*
X39113Y45243D01*
X39188Y45186D01*
X39276Y45149D01*
X39370Y45137D01*
X39570D01*
X39664Y45149D01*
X39752Y45186D01*
X39827Y45243D01*
X39884Y45318D01*
X39921Y45406D01*
X39933Y45500D01*
X39921Y45594D01*
X39884Y45682D01*
X39827Y45757D01*
X39752Y45814D01*
X39664Y45851D01*
X39570Y45863D01*
D02*
G37*
G36*
Y46863D02*
X39370D01*
X39276Y46851D01*
X39188Y46814D01*
X39113Y46757D01*
X39056Y46682D01*
X39019Y46594D01*
X39007Y46500D01*
X39019Y46406D01*
X39056Y46318D01*
X39113Y46243D01*
X39188Y46186D01*
X39276Y46149D01*
X39370Y46137D01*
X39570D01*
X39664Y46149D01*
X39752Y46186D01*
X39827Y46243D01*
X39884Y46318D01*
X39921Y46406D01*
X39933Y46500D01*
X39921Y46594D01*
X39884Y46682D01*
X39827Y46757D01*
X39752Y46814D01*
X39664Y46851D01*
X39570Y46863D01*
D02*
G37*
G36*
Y43863D02*
X39370D01*
X39276Y43851D01*
X39188Y43814D01*
X39113Y43757D01*
X39056Y43682D01*
X39019Y43594D01*
X39007Y43500D01*
X39019Y43406D01*
X39056Y43318D01*
X39113Y43243D01*
X39188Y43186D01*
X39276Y43149D01*
X39370Y43137D01*
X39570D01*
X39664Y43149D01*
X39752Y43186D01*
X39827Y43243D01*
X39884Y43318D01*
X39921Y43406D01*
X39933Y43500D01*
X39921Y43594D01*
X39884Y43682D01*
X39827Y43757D01*
X39752Y43814D01*
X39664Y43851D01*
X39570Y43863D01*
D02*
G37*
G36*
Y44863D02*
X39370D01*
X39276Y44851D01*
X39188Y44814D01*
X39113Y44757D01*
X39056Y44682D01*
X39019Y44594D01*
X39007Y44500D01*
X39019Y44406D01*
X39056Y44318D01*
X39113Y44243D01*
X39188Y44186D01*
X39276Y44149D01*
X39370Y44137D01*
X39570D01*
X39664Y44149D01*
X39752Y44186D01*
X39827Y44243D01*
X39884Y44318D01*
X39921Y44406D01*
X39933Y44500D01*
X39921Y44594D01*
X39884Y44682D01*
X39827Y44757D01*
X39752Y44814D01*
X39664Y44851D01*
X39570Y44863D01*
D02*
G37*
G36*
Y47863D02*
X39370D01*
X39276Y47851D01*
X39188Y47814D01*
X39113Y47757D01*
X39056Y47682D01*
X39019Y47594D01*
X39007Y47500D01*
X39019Y47406D01*
X39056Y47318D01*
X39113Y47243D01*
X39188Y47186D01*
X39276Y47149D01*
X39370Y47137D01*
X39570D01*
X39664Y47149D01*
X39752Y47186D01*
X39827Y47243D01*
X39884Y47318D01*
X39921Y47406D01*
X39933Y47500D01*
X39921Y47594D01*
X39884Y47682D01*
X39827Y47757D01*
X39752Y47814D01*
X39664Y47851D01*
X39570Y47863D01*
D02*
G37*
G36*
Y48863D02*
X39370D01*
X39276Y48851D01*
X39188Y48814D01*
X39113Y48757D01*
X39056Y48682D01*
X39019Y48594D01*
X39007Y48500D01*
X39019Y48406D01*
X39056Y48318D01*
X39113Y48243D01*
X39188Y48186D01*
X39276Y48149D01*
X39370Y48137D01*
X39570D01*
X39664Y48149D01*
X39752Y48186D01*
X39827Y48243D01*
X39884Y48318D01*
X39921Y48406D01*
X39933Y48500D01*
X39921Y48594D01*
X39884Y48682D01*
X39827Y48757D01*
X39752Y48814D01*
X39664Y48851D01*
X39570Y48863D01*
D02*
G37*
G36*
X27717Y48481D02*
X27570Y48466D01*
X27429Y48424D01*
X27298Y48354D01*
X27184Y48261D01*
X27091Y48146D01*
X27021Y48016D01*
X26978Y47875D01*
X26964Y47728D01*
X26978Y47582D01*
X27021Y47440D01*
X27091Y47310D01*
X27184Y47196D01*
X27298Y47103D01*
X27429Y47033D01*
X27570Y46990D01*
X27717Y46976D01*
X27863Y46990D01*
X28005Y47033D01*
X28135Y47103D01*
X28249Y47196D01*
X28342Y47310D01*
X28412Y47440D01*
X28455Y47582D01*
X28469Y47728D01*
X28455Y47875D01*
X28412Y48016D01*
X28342Y48146D01*
X28249Y48261D01*
X28135Y48354D01*
X28005Y48424D01*
X27863Y48466D01*
X27717Y48481D01*
D02*
G37*
G36*
X41496D02*
X41349Y48466D01*
X41208Y48424D01*
X41078Y48354D01*
X40964Y48261D01*
X40870Y48146D01*
X40801Y48016D01*
X40758Y47875D01*
X40743Y47728D01*
X40758Y47582D01*
X40801Y47440D01*
X40870Y47310D01*
X40964Y47196D01*
X41078Y47103D01*
X41208Y47033D01*
X41349Y46990D01*
X41496Y46976D01*
X41643Y46990D01*
X41784Y47033D01*
X41914Y47103D01*
X42028Y47196D01*
X42122Y47310D01*
X42191Y47440D01*
X42234Y47582D01*
X42249Y47728D01*
X42234Y47875D01*
X42191Y48016D01*
X42122Y48146D01*
X42028Y48261D01*
X41914Y48354D01*
X41784Y48424D01*
X41643Y48466D01*
X41496Y48481D01*
D02*
G37*
G36*
X24000Y38454D02*
X22700D01*
X22622Y38438D01*
X22556Y38394D01*
X20366Y36204D01*
X17500D01*
X17422Y36188D01*
X17356Y36144D01*
X17312Y36078D01*
X17296Y36000D01*
X17312Y35922D01*
X17356Y35856D01*
X17422Y35812D01*
X17500Y35796D01*
X20369D01*
X20437Y35783D01*
X20515Y35798D01*
X20581Y35842D01*
X22569Y37830D01*
X22631Y37822D01*
X22656Y37786D01*
X23786Y36656D01*
X23852Y36612D01*
X23930Y36596D01*
X23930Y36596D01*
X25616D01*
X25856Y36356D01*
X25922Y36312D01*
X26000Y36296D01*
X26078Y36312D01*
X26144Y36356D01*
X26188Y36422D01*
X26204Y36500D01*
X26188Y36578D01*
X26144Y36644D01*
X25844Y36944D01*
X25778Y36988D01*
X25700Y37004D01*
X24014D01*
X23018Y38000D01*
X23038Y38046D01*
X23916D01*
X24006Y37956D01*
X24072Y37912D01*
X24150Y37896D01*
X24228Y37912D01*
X24294Y37956D01*
X24338Y38022D01*
X24354Y38100D01*
X24338Y38178D01*
X24294Y38244D01*
X24144Y38394D01*
X24078Y38438D01*
X24000Y38454D01*
D02*
G37*
G36*
X39570Y39863D02*
X39370D01*
X39276Y39851D01*
X39188Y39814D01*
X39113Y39757D01*
X39056Y39682D01*
X39019Y39594D01*
X39007Y39500D01*
X39019Y39406D01*
X39056Y39318D01*
X39113Y39243D01*
X39188Y39186D01*
X39276Y39149D01*
X39370Y39137D01*
X39570D01*
X39664Y39149D01*
X39752Y39186D01*
X39827Y39243D01*
X39884Y39318D01*
X39921Y39406D01*
X39933Y39500D01*
X39921Y39594D01*
X39884Y39682D01*
X39827Y39757D01*
X39752Y39814D01*
X39664Y39851D01*
X39570Y39863D01*
D02*
G37*
G36*
X22300Y39004D02*
X22222Y38988D01*
X22156Y38944D01*
X22156Y38944D01*
X20426Y37214D01*
X18250D01*
X18172Y37199D01*
X18106Y37154D01*
X18062Y37088D01*
X18046Y37010D01*
X18062Y36932D01*
X18106Y36866D01*
X18172Y36822D01*
X18250Y36806D01*
X20510D01*
X20588Y36822D01*
X20654Y36866D01*
X22384Y38596D01*
X23750D01*
X23828Y38612D01*
X23894Y38656D01*
X23938Y38722D01*
X23954Y38800D01*
X23938Y38878D01*
X23894Y38944D01*
X23828Y38988D01*
X23750Y39004D01*
X22300D01*
X22300Y39004D01*
D02*
G37*
G36*
X41785Y38239D02*
X41069D01*
X40991Y38223D01*
X40925Y38179D01*
X40550Y37804D01*
X38750D01*
X38672Y37788D01*
X38606Y37744D01*
X38562Y37678D01*
X38546Y37600D01*
X38562Y37522D01*
X38606Y37456D01*
X38672Y37412D01*
X38750Y37396D01*
X40634D01*
X40712Y37412D01*
X40778Y37456D01*
X40836Y37514D01*
X40889Y37496D01*
X40895Y37450D01*
X40934Y37356D01*
X40985Y37289D01*
X40966Y37239D01*
X40685D01*
X40685Y37239D01*
X40607Y37223D01*
X40541Y37179D01*
X39666Y36304D01*
X38750D01*
X38672Y36288D01*
X38606Y36244D01*
X38562Y36178D01*
X38546Y36100D01*
X38562Y36022D01*
X38606Y35956D01*
X38672Y35912D01*
X38750Y35896D01*
X39750D01*
X39828Y35912D01*
X39894Y35956D01*
X40769Y36831D01*
X40937D01*
X40962Y36781D01*
X40934Y36744D01*
X40895Y36651D01*
X40882Y36550D01*
X40895Y36449D01*
X40934Y36356D01*
X40974Y36304D01*
X40950Y36254D01*
X40950Y36254D01*
X40872Y36238D01*
X40806Y36194D01*
X39416Y34804D01*
X38750D01*
X38672Y34788D01*
X38606Y34744D01*
X38562Y34678D01*
X38546Y34600D01*
X38562Y34522D01*
X38606Y34456D01*
X38672Y34412D01*
X38750Y34396D01*
X39500D01*
X39578Y34412D01*
X39644Y34456D01*
X40845Y35657D01*
X40893Y35634D01*
X40882Y35550D01*
X40895Y35450D01*
X40934Y35356D01*
X40976Y35300D01*
X40956Y35245D01*
X40922Y35238D01*
X40895Y35221D01*
X40856Y35194D01*
X40856Y35194D01*
X38966Y33304D01*
X38750D01*
X38672Y33288D01*
X38606Y33244D01*
X38562Y33178D01*
X38546Y33100D01*
X38562Y33022D01*
X38606Y32956D01*
X38672Y32912D01*
X38750Y32896D01*
X39050D01*
X39128Y32912D01*
X39194Y32956D01*
X39559Y33321D01*
X39605Y33296D01*
X39596Y33250D01*
Y32734D01*
X38606Y31744D01*
X38562Y31678D01*
X38546Y31600D01*
X38562Y31522D01*
X38606Y31456D01*
X38672Y31412D01*
X38750Y31396D01*
X38828Y31412D01*
X38894Y31456D01*
X39944Y32506D01*
X39988Y32572D01*
X40004Y32650D01*
Y33166D01*
X40684Y33846D01*
X40949D01*
X40974Y33796D01*
X40934Y33744D01*
X40895Y33651D01*
X40882Y33550D01*
X40895Y33449D01*
X40934Y33356D01*
X40995Y33275D01*
X41076Y33214D01*
X41169Y33175D01*
X41270Y33162D01*
X41371Y33175D01*
X41464Y33214D01*
X41545Y33275D01*
X41606Y33356D01*
X41645Y33449D01*
X41658Y33550D01*
X41645Y33651D01*
X41606Y33744D01*
X41566Y33796D01*
X41591Y33846D01*
X41686D01*
X41893Y33638D01*
X41882Y33550D01*
X41895Y33449D01*
X41934Y33356D01*
X41995Y33275D01*
X42076Y33214D01*
X42169Y33175D01*
X42270Y33162D01*
X42371Y33175D01*
X42464Y33214D01*
X42545Y33275D01*
X42606Y33356D01*
X42645Y33449D01*
X42658Y33550D01*
X42645Y33651D01*
X42606Y33744D01*
X42545Y33825D01*
X42464Y33886D01*
X42371Y33925D01*
X42270Y33938D01*
X42182Y33927D01*
X41914Y34194D01*
X41848Y34238D01*
X41770Y34254D01*
X41591D01*
X41566Y34304D01*
X41606Y34356D01*
X41645Y34450D01*
X41658Y34550D01*
X41645Y34650D01*
X41606Y34744D01*
X41566Y34796D01*
X41591Y34846D01*
X41686D01*
X41893Y34638D01*
X41882Y34550D01*
X41895Y34450D01*
X41934Y34356D01*
X41995Y34275D01*
X42076Y34214D01*
X42169Y34175D01*
X42270Y34162D01*
X42371Y34175D01*
X42464Y34214D01*
X42545Y34275D01*
X42606Y34356D01*
X42645Y34450D01*
X42658Y34550D01*
X42645Y34650D01*
X42606Y34744D01*
X42545Y34825D01*
X42464Y34886D01*
X42371Y34925D01*
X42270Y34938D01*
X42182Y34927D01*
X41914Y35194D01*
X41848Y35238D01*
X41770Y35254D01*
X41591D01*
X41566Y35304D01*
X41606Y35356D01*
X41645Y35450D01*
X41658Y35550D01*
X41645Y35650D01*
X41606Y35744D01*
X41566Y35796D01*
X41591Y35846D01*
X41686D01*
X41893Y35638D01*
X41882Y35550D01*
X41895Y35450D01*
X41934Y35356D01*
X41995Y35275D01*
X42076Y35214D01*
X42169Y35175D01*
X42270Y35162D01*
X42371Y35175D01*
X42464Y35214D01*
X42545Y35275D01*
X42606Y35356D01*
X42645Y35450D01*
X42658Y35550D01*
X42645Y35650D01*
X42606Y35744D01*
X42545Y35825D01*
X42464Y35886D01*
X42371Y35925D01*
X42270Y35938D01*
X42182Y35927D01*
X41914Y36194D01*
X41848Y36238D01*
X41770Y36254D01*
X41591D01*
X41566Y36304D01*
X41606Y36356D01*
X41645Y36449D01*
X41658Y36550D01*
X41645Y36651D01*
X41606Y36744D01*
X41578Y36781D01*
X41603Y36831D01*
X41701D01*
X41893Y36638D01*
X41882Y36550D01*
X41895Y36449D01*
X41934Y36356D01*
X41995Y36275D01*
X42076Y36214D01*
X42169Y36175D01*
X42270Y36162D01*
X42371Y36175D01*
X42464Y36214D01*
X42545Y36275D01*
X42606Y36356D01*
X42645Y36449D01*
X42658Y36550D01*
X42645Y36651D01*
X42606Y36744D01*
X42545Y36825D01*
X42464Y36886D01*
X42371Y36925D01*
X42270Y36938D01*
X42182Y36927D01*
X41929Y37179D01*
X41863Y37223D01*
X41785Y37239D01*
X41574D01*
X41555Y37289D01*
X41606Y37356D01*
X41645Y37450D01*
X41658Y37550D01*
X41645Y37650D01*
X41606Y37744D01*
X41578Y37781D01*
X41603Y37831D01*
X41701D01*
X41893Y37638D01*
X41882Y37550D01*
X41895Y37450D01*
X41934Y37356D01*
X41995Y37275D01*
X42076Y37214D01*
X42169Y37175D01*
X42270Y37162D01*
X42371Y37175D01*
X42464Y37214D01*
X42545Y37275D01*
X42606Y37356D01*
X42645Y37450D01*
X42658Y37550D01*
X42645Y37650D01*
X42606Y37744D01*
X42545Y37825D01*
X42464Y37886D01*
X42371Y37925D01*
X42270Y37938D01*
X42182Y37927D01*
X41929Y38179D01*
X41863Y38223D01*
X41785Y38239D01*
D02*
G37*
G36*
X39570Y42863D02*
X39370D01*
X39276Y42851D01*
X39188Y42814D01*
X39113Y42757D01*
X39056Y42682D01*
X39019Y42594D01*
X39007Y42500D01*
X39019Y42406D01*
X39056Y42318D01*
X39113Y42243D01*
X39188Y42186D01*
X39276Y42149D01*
X39370Y42137D01*
X39570D01*
X39664Y42149D01*
X39752Y42186D01*
X39827Y42243D01*
X39884Y42318D01*
X39921Y42406D01*
X39933Y42500D01*
X39921Y42594D01*
X39884Y42682D01*
X39827Y42757D01*
X39752Y42814D01*
X39664Y42851D01*
X39570Y42863D01*
D02*
G37*
G36*
X13200Y44671D02*
X13012Y44652D01*
X12831Y44598D01*
X12664Y44508D01*
X12518Y44388D01*
X12398Y44242D01*
X12309Y44075D01*
X12254Y43894D01*
X12235Y43706D01*
X12254Y43518D01*
X12309Y43337D01*
X12398Y43170D01*
X12518Y43024D01*
X12664Y42904D01*
X12831Y42815D01*
X13012Y42760D01*
X13200Y42742D01*
X13388Y42760D01*
X13569Y42815D01*
X13736Y42904D01*
X13882Y43024D01*
X14002Y43170D01*
X14091Y43337D01*
X14146Y43518D01*
X14165Y43706D01*
X14146Y43894D01*
X14091Y44075D01*
X14002Y44242D01*
X13882Y44388D01*
X13736Y44508D01*
X13569Y44598D01*
X13388Y44652D01*
X13200Y44671D01*
D02*
G37*
G36*
X39570Y41863D02*
X39370D01*
X39276Y41851D01*
X39188Y41814D01*
X39113Y41757D01*
X39056Y41682D01*
X39019Y41594D01*
X39007Y41500D01*
X39019Y41406D01*
X39056Y41318D01*
X39113Y41243D01*
X39188Y41186D01*
X39276Y41149D01*
X39370Y41137D01*
X39570D01*
X39664Y41149D01*
X39752Y41186D01*
X39827Y41243D01*
X39884Y41318D01*
X39921Y41406D01*
X39933Y41500D01*
X39921Y41594D01*
X39884Y41682D01*
X39827Y41757D01*
X39752Y41814D01*
X39664Y41851D01*
X39570Y41863D01*
D02*
G37*
G36*
Y40863D02*
X39370D01*
X39276Y40851D01*
X39188Y40814D01*
X39113Y40757D01*
X39056Y40682D01*
X39019Y40594D01*
X39007Y40500D01*
X39019Y40406D01*
X39056Y40318D01*
X39113Y40243D01*
X39188Y40186D01*
X39276Y40149D01*
X39370Y40137D01*
X39570D01*
X39664Y40149D01*
X39752Y40186D01*
X39827Y40243D01*
X39884Y40318D01*
X39921Y40406D01*
X39933Y40500D01*
X39921Y40594D01*
X39884Y40682D01*
X39827Y40757D01*
X39752Y40814D01*
X39664Y40851D01*
X39570Y40863D01*
D02*
G37*
%LPD*%
G36*
X34989Y39261D02*
Y38733D01*
Y38233D01*
X35000D01*
Y37767D01*
X34989D01*
Y37233D01*
Y36733D01*
X35000D01*
Y36267D01*
X34989D01*
Y35733D01*
Y35233D01*
X35000D01*
Y34767D01*
X34989D01*
Y34233D01*
Y33733D01*
X35000D01*
Y33267D01*
X34989D01*
Y32733D01*
Y32233D01*
X35000D01*
Y30750D01*
X35250Y30500D01*
X35750D01*
X36000Y30250D01*
Y29750D01*
X35750Y29500D01*
X35667D01*
Y29511D01*
X34633D01*
Y29500D01*
X34167D01*
Y29511D01*
X33133D01*
Y29500D01*
X32667D01*
Y29511D01*
X31633D01*
Y29500D01*
X31167D01*
Y29511D01*
X30133D01*
Y29500D01*
X29667D01*
Y29511D01*
X28633D01*
Y29500D01*
X24250D01*
X24000Y29750D01*
X23500Y30250D01*
Y32000D01*
X23750Y32250D01*
X24250D01*
X24500Y32000D01*
Y30750D01*
X24750Y30500D01*
X33750D01*
X34000Y30750D01*
Y36250D01*
X33750Y36500D01*
X29500D01*
X29300Y36650D01*
Y36850D01*
X29500Y37000D01*
X33750D01*
X34000Y37250D01*
Y39250D01*
X34250Y39500D01*
X34750D01*
X34989Y39261D01*
D02*
G37*
D16*
X34774Y39000D02*
D03*
X35226D02*
D03*
X34774Y38500D02*
D03*
X35226D02*
D03*
X34774Y37500D02*
D03*
X35226D02*
D03*
X34774Y37000D02*
D03*
X35226D02*
D03*
X34774Y36000D02*
D03*
X35226D02*
D03*
X34774Y35500D02*
D03*
X35226D02*
D03*
X34774Y34500D02*
D03*
X35226D02*
D03*
X34774Y34000D02*
D03*
X35226D02*
D03*
X34774Y33000D02*
D03*
X35226D02*
D03*
X34774Y32500D02*
D03*
X35226D02*
D03*
D31*
X38750Y37600D02*
X40634D01*
X41069Y38035D01*
X41785D01*
X42270Y37550D01*
X38750Y36100D02*
X39750D01*
X40685Y37035D01*
X41785D01*
X42270Y36550D01*
X38750Y34600D02*
X39500D01*
X40950Y36050D01*
X41770D01*
X42270Y35550D01*
X38750Y33100D02*
X39050D01*
X41000Y35050D01*
X41770D01*
X42270Y34550D01*
X38750Y31600D02*
X39800Y32650D01*
Y33250D01*
X40600Y34050D01*
X41770D01*
X42270Y33550D01*
X34000Y26000D02*
X35000D01*
X41050Y32050D01*
X41770D01*
X42270Y32550D01*
X32500Y26000D02*
X33604D01*
X33884Y25720D01*
X35530D01*
X40860Y31050D01*
X41770D01*
X42270Y31550D01*
X31000Y26000D02*
X32104D01*
X32644Y25460D01*
X36210D01*
X40800Y30050D01*
X41770D01*
X42270Y30550D01*
X29500Y26000D02*
X30604D01*
X31404Y25200D01*
X37150D01*
X41000Y29050D01*
X41770D01*
X42270Y29550D01*
X28000Y26000D02*
X29104D01*
X30164Y24940D01*
X38660D01*
X42270Y28550D01*
X35226Y39000D02*
X36000D01*
X35226Y38500D02*
X37500D01*
X35226Y37500D02*
X36000D01*
X35226Y37000D02*
X37500D01*
X35226Y36000D02*
X36000D01*
X35226Y35500D02*
X37500D01*
X35226Y34500D02*
X36000D01*
X35226Y34000D02*
X37500D01*
X35226Y33000D02*
X36000D01*
X35226Y32500D02*
X37500D01*
X23930Y36800D02*
X25700D01*
X26000Y36500D01*
X22800Y37930D02*
X23930Y36800D01*
X21100Y31900D02*
X22400Y33200D01*
X18950Y31900D02*
X21100D01*
X18650Y32200D02*
X18950Y31900D01*
X18650Y32200D02*
Y33250D01*
X19100Y33700D01*
X19700D01*
X20700Y34700D02*
X21600D01*
X22900Y33400D01*
Y31050D02*
Y33400D01*
X11400Y31250D02*
X20900D01*
X11250Y31100D02*
X11400Y31250D01*
X11250Y33100D02*
X16850D01*
X19200Y35450D01*
X21500D01*
X22900Y34050D01*
X22700Y38250D02*
X24000D01*
X24150Y38100D01*
X22300Y38800D02*
X23750D01*
X20510Y37010D02*
X22300Y38800D01*
X18250Y37010D02*
X20510D01*
X35400Y28500D02*
Y29274D01*
Y28500D02*
X35400Y28500D01*
X34900Y27000D02*
Y29274D01*
Y27000D02*
X34900Y27000D01*
X33900Y28500D02*
Y29274D01*
Y28500D02*
X33900Y28500D01*
X33400Y27000D02*
Y29274D01*
X32400Y28500D02*
Y29274D01*
X31900Y27000D02*
Y29274D01*
X30900Y28500D02*
Y29274D01*
Y28500D02*
X30900Y28500D01*
X30400Y27000D02*
Y29274D01*
X29400Y28500D02*
Y29274D01*
X28900Y27000D02*
Y29274D01*
X20437Y35987D02*
X22700Y38250D01*
X20423Y36000D02*
X20437Y35987D01*
X17500Y36000D02*
X20423D01*
X13000Y36300D02*
X15500D01*
X16950Y34850D01*
X17150D01*
X23500Y36250D02*
X26750Y33000D01*
X27100D01*
D34*
X11250Y31100D02*
D03*
Y32100D02*
D03*
Y33100D02*
D03*
D35*
Y34100D02*
D03*
D36*
X19700Y34700D02*
D03*
X20700D02*
D03*
X19700Y33700D02*
D03*
X20700D02*
D03*
X19700Y32700D02*
D03*
X20700D02*
D03*
D37*
X42270Y36550D02*
D03*
X41270D02*
D03*
Y37550D02*
D03*
X42270D02*
D03*
Y35550D02*
D03*
X41270D02*
D03*
Y34550D02*
D03*
X42270D02*
D03*
X41270Y33550D02*
D03*
Y32550D02*
D03*
Y31550D02*
D03*
Y30550D02*
D03*
Y29550D02*
D03*
Y28550D02*
D03*
X42270Y33550D02*
D03*
Y32550D02*
D03*
Y31550D02*
D03*
Y30550D02*
D03*
Y29550D02*
D03*
D38*
Y28550D02*
D03*
D39*
X39470Y40500D02*
D03*
Y39500D02*
D03*
Y41500D02*
D03*
Y42500D02*
D03*
Y43500D02*
D03*
Y45500D02*
D03*
Y44500D02*
D03*
Y46500D02*
D03*
Y47500D02*
D03*
Y48500D02*
D03*
D40*
X11271Y44868D02*
D03*
X13200Y43706D02*
D03*
Y46069D02*
D03*
D41*
X24000Y31800D02*
D03*
D42*
X10648Y40999D02*
D03*
Y38401D02*
D03*
D43*
X13150Y26075D02*
D03*
X23780D02*
D03*
X27717Y47728D02*
D03*
X41496D02*
D03*
D44*
X34150Y40750D02*
D03*
X35550Y41500D02*
D03*
X34150Y42250D02*
D03*
X35550Y43000D02*
D03*
Y44500D02*
D03*
X34150Y43750D02*
D03*
Y45250D02*
D03*
X35550Y46000D02*
D03*
X34150Y46750D02*
D03*
X35550Y40000D02*
D03*
X36000Y39000D02*
D03*
X37500Y38500D02*
D03*
X36000Y37500D02*
D03*
X37500Y37000D02*
D03*
X36000Y36000D02*
D03*
X37500Y35500D02*
D03*
X36000Y34500D02*
D03*
Y33000D02*
D03*
X37500Y34000D02*
D03*
Y32500D02*
D03*
X38750Y31600D02*
D03*
Y33100D02*
D03*
Y34600D02*
D03*
Y36100D02*
D03*
Y37600D02*
D03*
X33900Y28500D02*
D03*
X35400D02*
D03*
X34900Y27000D02*
D03*
X33400D02*
D03*
X32400Y28500D02*
D03*
X31900Y27000D02*
D03*
X30900Y28500D02*
D03*
X30400Y27000D02*
D03*
X29400Y28500D02*
D03*
X28900Y27000D02*
D03*
X34000Y26000D02*
D03*
X32500D02*
D03*
X28000D02*
D03*
X29500D02*
D03*
X31000D02*
D03*
X26000Y36500D02*
D03*
X26913Y27663D02*
D03*
X22800Y37930D02*
D03*
X22400Y33200D02*
D03*
X22900Y31050D02*
D03*
X20900Y31250D02*
D03*
X22900Y34050D02*
D03*
X18250Y37010D02*
D03*
X23750Y38800D02*
D03*
X24150Y38100D02*
D03*
X28400Y36950D02*
D03*
X18228Y37522D02*
D03*
X11800Y35200D02*
D03*
X17500Y36000D02*
D03*
X17150Y34850D02*
D03*
X13000Y36300D02*
D03*
X29550Y36750D02*
D03*
X27100Y33000D02*
D03*
X23500Y36250D02*
D03*
D45*
X35400Y29726D02*
D03*
Y29274D02*
D03*
X34900Y29726D02*
D03*
Y29274D02*
D03*
X33900Y29726D02*
D03*
Y29274D02*
D03*
X33400Y29726D02*
D03*
Y29274D02*
D03*
X32400Y29726D02*
D03*
Y29274D02*
D03*
X31900Y29726D02*
D03*
Y29274D02*
D03*
X30900Y29726D02*
D03*
Y29274D02*
D03*
X30400Y29726D02*
D03*
Y29274D02*
D03*
X29400Y29726D02*
D03*
Y29274D02*
D03*
X28900Y29726D02*
D03*
Y29274D02*
D03*
M02*
